<?xml version="1.0" encoding="UTF-8" standalone="no"?>
<!-- Created with Inkscape (http://www.inkscape.org/) -->

<svg
   xmlns:dc="http://purl.org/dc/elements/1.1/"
   xmlns:cc="http://creativecommons.org/ns#"
   xmlns:rdf="http://www.w3.org/1999/02/22-rdf-syntax-ns#"
   xmlns:svg="http://www.w3.org/2000/svg"
   xmlns="http://www.w3.org/2000/svg"
   xmlns:sodipodi="http://sodipodi.sourceforge.net/DTD/sodipodi-0.dtd"
   xmlns:inkscape="http://www.inkscape.org/namespaces/inkscape"
   width="1000"
   height="704.95581"
   viewBox="0 0 999.99996 704.95582"
   id="svg2"
   version="1.1"
   inkscape:version="0.91 r13725"
   sodipodi:docname="IT 2017 logo.svg">
  <title
     id="title4628">IT movie logo</title>
  <defs
     id="defs4">
    <style
       id="style4306"
       type="text/css"><![CDATA[
    .fil0 {fill:none;fill-rule:nonzero}
   ]]></style>
  </defs>
  <sodipodi:namedview
     id="base"
     pagecolor="#ffffff"
     bordercolor="#666666"
     borderopacity="1.0"
     inkscape:pageopacity="0.0"
     inkscape:pageshadow="2"
     inkscape:zoom="0.37288433"
     inkscape:cx="470.13884"
     inkscape:cy="516.65462"
     inkscape:document-units="px"
     inkscape:current-layer="layer1"
     showgrid="false"
     units="px"
     fit-margin-top="10"
     fit-margin-right="10"
     fit-margin-bottom="10"
     fit-margin-left="10"
     inkscape:window-width="1366"
     inkscape:window-height="705"
     inkscape:window-x="0"
     inkscape:window-y="30"
     inkscape:window-maximized="1" />
  <metadata
     id="metadata7">
    <rdf:RDF>
      <cc:Work
         rdf:about="">
        <dc:format>image/svg+xml</dc:format>
        <dc:type
           rdf:resource="http://purl.org/dc/dcmitype/StillImage" />
        <dc:title>IT movie logo</dc:title>
      </cc:Work>
    </rdf:RDF>
  </metadata>
  <g
     inkscape:label="Capa 1"
     inkscape:groupmode="layer"
     id="layer1"
     transform="translate(2379.6831,-2079.7336)">
    <g
       style="clip-rule:evenodd;fill:#ae1b0a;fill-opacity:1;fill-rule:evenodd;image-rendering:optimizeQuality;shape-rendering:geometricPrecision;text-rendering:geometricPrecision"
       id="g4366"
       transform="matrix(0.01375634,0,0,0.01375634,-2328.9249,2012.9319)">
      <g
         id="Layer_x0020_1"
         style="fill:#ae1b0a;fill-opacity:1">
        <metadata
           id="CorelCorpID_0Corel-Layer" />
        <g
           id="_163744224"
           style="fill:#ae1b0a;fill-opacity:1">
          <path
             id="path4311"
             d="m 36181,5583 c 14,5 28,9 42,14 -8,28 2,12 -14,28 0,5 0,9 0,14 -28,-8 -12,2 -28,-14 -5,0 -9,0 -14,0 0,-5 0,-9 0,-14 5,-9 9,-19 14,-28 z"
             class="fil0"
             inkscape:connector-curvature="0"
             style="fill:#ae1b0a;fill-opacity:1;fill-rule:nonzero" />
        </g>
        <g
           id="_163744560"
           style="fill:#ae1b0a;fill-opacity:1">
          <path
             id="path4314"
             d="m 67153,9931 c -5,14 -9,28 -14,42 -14,5 -28,9 -42,14 0,5 0,9 0,14 -9,0 -19,0 -28,0 0,5 0,9 0,14 -14,0 -28,0 -42,0 0,5 0,9 0,14 -9,0 -19,0 -28,0 0,5 0,9 0,14 -255,9 -509,19 -764,28 -111,0 -222,0 -333,0 0,-5 0,-9 0,-14 -46,0 -93,0 -139,0 0,-5 0,-9 0,-14 -42,0 -83,0 -125,0 0,-5 0,-9 0,-14 -51,0 -102,0 -153,0 -52,-15 -111,-27 -181,-28 -259,5 -519,9 -778,14 -120,-9 -241,-19 -361,-28 0,5 0,9 0,14 -58,16 -304,-1 -347,-14 0,-5 0,-9 0,-14 -28,0 -56,0 -83,0 0,-5 0,-9 0,-14 -39,-10 -128,21 -153,28 -74,0 -148,0 -222,0 0,-5 0,-9 0,-14 -90,-25 -250,11 -306,28 -23,0 -46,0 -69,0 0,5 0,9 0,14 -14,0 -28,0 -42,0 0,5 0,9 0,14 -68,21 -180,-16 -222,-28 -93,5 -185,9 -278,14 0,5 0,9 0,14 -37,0 -74,0 -111,0 -102,0 -204,0 -306,0 0,-5 0,-9 0,-14 -23,0 -46,0 -69,0 -14,0 -28,0 -42,0 0,5 0,9 0,14 -65,0 -130,0 -194,0 0,5 0,9 0,14 -56,0 -111,0 -167,0 0,-5 0,-9 0,-14 -74,5 -148,9 -222,14 0,5 0,9 0,14 -56,0 -111,0 -167,0 0,0 -11,20 -42,14 0,-5 0,-9 0,-14 -32,0 -65,0 -97,0 0,5 0,9 0,14 -130,0 -259,0 -389,0 0,5 0,9 0,14 -79,5 -157,9 -236,14 0,5 0,9 0,14 -19,0 -37,0 -56,0 0,5 0,9 0,14 -23,0 -46,0 -69,0 0,5 0,9 0,14 -28,0 -56,0 -83,0 0,5 0,9 0,14 -51,5 -102,9 -153,14 0,5 0,9 0,14 -28,0 -56,0 -83,0 0,5 0,9 0,14 -69,5 -139,9 -208,14 0,5 0,9 0,14 -120,0 -241,0 -361,0 -74,5 -148,9 -222,14 0,-5 0,-9 0,-14 -51,0 -102,0 -153,0 0,5 0,9 0,14 -23,0 -46,0 -69,0 0,5 0,9 0,14 -19,0 -37,0 -56,0 0,5 0,9 0,14 -23,0 -46,0 -69,0 0,5 0,9 0,14 -134,-5 -269,-9 -403,-14 0,5 0,9 0,14 -23,0 -46,0 -69,0 0,5 0,9 0,14 -14,0 -28,0 -42,0 0,5 0,9 0,14 -19,0 -37,0 -56,0 0,5 0,9 0,14 -268,9 -537,19 -806,28 0,5 0,9 0,14 -9,0 -19,0 -28,0 0,5 0,9 0,14 -19,0 -37,0 -56,0 0,5 0,9 0,14 -14,0 -28,0 -42,0 0,5 0,9 0,14 -9,0 -19,0 -28,0 0,5 0,9 0,14 -28,0 -56,0 -83,0 0,5 0,9 0,14 -19,0 -37,0 -56,0 0,5 0,9 0,14 -14,0 -28,0 -42,0 0,5 0,9 0,14 -23,0 -46,0 -69,0 0,5 0,9 0,14 -9,0 -19,0 -28,0 0,5 0,9 0,14 -42,5 -83,9 -125,14 0,5 0,9 0,14 -19,5 -37,9 -56,14 0,5 0,9 0,14 -19,0 -37,0 -56,0 0,5 0,9 0,14 -19,0 -37,0 -56,0 0,5 0,9 0,14 -176,23 -352,46 -528,69 -5,9 -9,19 -14,28 -46,9 -93,19 -139,28 0,5 0,9 0,14 -9,0 -19,0 -28,0 0,5 0,9 0,14 -14,0 -28,0 -42,0 0,5 0,9 0,14 -14,0 -28,0 -42,0 0,5 0,9 0,14 -14,0 -28,0 -42,0 0,5 0,9 0,14 -23,0 -46,0 -69,0 0,5 0,9 0,14 -116,5 -231,9 -347,14 0,5 0,9 0,14 -32,0 -65,0 -97,0 0,5 0,9 0,14 -19,0 -37,0 -56,0 0,5 0,9 0,14 -46,0 -93,0 -139,0 0,5 0,9 0,14 -37,0 -74,0 -111,0 0,5 0,9 0,14 -23,0 -46,0 -69,0 0,5 0,9 0,14 -19,0 -37,0 -56,0 0,5 0,9 0,14 -14,0 -28,0 -42,0 0,5 0,9 0,14 -28,0 -56,0 -83,0 0,5 0,9 0,14 -28,9 -56,19 -83,28 0,5 0,9 0,14 -9,0 -19,0 -28,0 0,5 0,9 0,14 -19,0 -37,0 -56,0 0,5 0,9 0,14 -9,0 -19,0 -28,0 0,5 0,9 0,14 -19,0 -37,0 -56,0 0,5 0,9 0,14 -23,0 -46,0 -69,0 0,5 0,9 0,14 -79,0 -157,0 -236,0 -99,28 -278,65 -417,42 -34,-6 -134,-42 -181,-28 -37,11 -71,32 -97,56 -5,9 -9,19 -14,28 -28,0 -56,0 -83,0 0,-5 0,-9 0,-14 -56,9 -111,19 -167,28 0,5 0,9 0,14 -9,0 -19,0 -28,0 0,5 0,9 0,14 -14,0 -28,0 -42,0 0,5 0,9 0,14 -19,0 -37,0 -56,0 0,5 0,9 0,14 -9,0 -19,0 -28,0 0,5 0,9 0,14 -9,0 -19,0 -28,0 -5,9 -9,19 -14,28 -9,0 -19,0 -28,0 0,5 0,9 0,14 -19,0 -37,0 -56,0 0,5 0,9 0,14 -19,5 -37,9 -56,14 0,5 0,9 0,14 -42,9 -83,19 -125,28 -5,9 -9,19 -14,28 -9,0 -19,0 -28,0 0,5 0,9 0,14 -9,0 -19,0 -28,0 0,5 0,9 0,14 -14,0 -28,0 -42,0 0,5 0,9 0,14 -9,0 -19,0 -28,0 0,5 0,9 0,14 -42,5 -83,9 -125,14 0,5 0,9 0,14 -9,0 -19,0 -28,0 0,5 0,9 0,14 -19,0 -37,0 -56,0 0,5 0,9 0,14 -19,0 -37,0 -56,0 -14,19 -28,37 -42,56 -9,0 -19,0 -28,0 -5,9 -9,19 -14,28 -19,5 -37,9 -56,14 -5,9 -9,19 -14,28 -28,9 -56,19 -83,28 -5,9 -9,19 -14,28 -9,0 -19,0 -28,0 -5,9 -9,19 -14,28 -19,0 -37,0 -56,0 0,5 0,9 0,14 -23,0 -46,0 -69,0 -53,16 -164,51 -250,28 0,-5 0,-9 0,-14 -32,0 -65,0 -97,0 0,5 0,9 0,14 -74,0 -148,0 -222,0 -50,-15 -167,-94 -236,-69 0,5 0,9 0,14 -9,0 -19,0 -28,0 0,5 0,9 0,14 -9,0 -19,0 -28,0 0,5 0,9 0,14 -9,0 -19,0 -28,0 -5,9 -9,19 -14,28 -9,0 -19,0 -28,0 0,5 0,9 0,14 -9,0 -19,0 -28,0 0,5 0,9 0,14 -14,0 -28,0 -42,0 0,5 0,9 0,14 -19,5 -37,9 -56,14 0,5 0,9 0,14 -14,0 -28,0 -42,0 0,5 0,9 0,14 -28,0 -56,0 -83,0 -162,47 -429,1 -597,0 -245,5 -491,9 -736,14 -80,23 -173,51 -264,56 -9,14 -19,28 -28,42 -5,0 -9,0 -14,0 -5,19 -9,37 -14,56 -9,5 -19,9 -28,14 0,9 0,19 0,28 -19,9 -37,19 -56,28 0,9 0,19 0,28 -5,0 -9,0 -14,0 0,9 0,19 0,28 -5,0 -9,0 -14,0 0,14 0,28 0,42 -5,0 -9,0 -14,0 0,9 0,19 0,28 -5,0 -9,0 -14,0 0,14 0,28 0,42 -5,0 -9,0 -14,0 0,32 0,65 0,97 -5,0 -9,0 -14,0 -29,104 35,330 56,403 5,74 9,148 14,222 5,0 9,0 14,0 5,23 9,46 14,69 9,5 19,9 28,14 5,37 9,74 14,111 5,0 9,0 14,0 0,14 0,28 0,42 5,0 9,0 14,0 0,23 0,46 0,69 5,0 9,0 14,0 -5,65 -9,130 -14,194 5,0 9,0 14,0 0,14 0,28 0,42 5,0 9,0 14,0 0,9 0,19 0,28 5,0 9,0 14,0 0,14 0,28 0,42 5,0 9,0 14,0 5,19 9,37 14,56 5,0 9,0 14,0 0,19 0,37 0,56 5,0 9,0 14,0 24,80 -27,198 -42,250 -5,130 -9,259 -14,389 -5,0 -9,0 -14,0 0,19 0,37 0,56 -5,0 -9,0 -14,0 0,14 0,28 0,42 -5,0 -9,0 -14,0 -9,46 -19,93 -28,139 -5,0 -9,0 -14,0 0,9 0,19 0,28 -5,0 -9,0 -14,0 -21,39 -36,88 -42,139 18,13 27,44 42,56 9,0 19,0 28,0 0,5 0,9 0,14 36,32 42,39 42,111 -5,0 -9,0 -14,0 5,65 9,130 14,194 9,5 19,9 28,14 5,19 9,37 14,56 14,9 28,19 42,28 0,9 0,19 0,28 5,0 9,0 14,0 0,9 0,19 0,28 5,0 9,0 14,0 0,9 0,19 0,28 5,0 9,0 14,0 0,9 0,19 0,28 9,5 19,9 28,14 0,9 0,19 0,28 5,0 9,0 14,0 0,9 0,19 0,28 23,14 46,28 69,42 0,9 0,19 0,28 19,14 37,28 56,42 5,14 9,28 14,42 29,22 72,17 97,42 23,42 46,83 69,125 9,0 19,0 28,0 9,14 19,28 28,42 9,0 19,0 28,0 9,19 19,37 28,56 37,32 74,65 111,97 5,19 9,37 14,56 5,0 9,0 14,0 5,46 9,93 14,139 5,0 9,0 14,0 0,74 0,148 0,222 -5,0 -9,0 -14,0 0,32 0,65 0,97 -5,0 -9,0 -14,0 0,42 0,83 0,125 -5,0 -9,0 -14,0 0,28 0,56 0,83 -5,0 -9,0 -14,0 0,14 0,28 0,42 -5,0 -9,0 -14,0 0,14 0,28 0,42 -5,0 -9,0 -14,0 0,9 0,19 0,28 -5,0 -9,0 -14,0 0,9 0,19 0,28 -19,14 -37,28 -56,42 -5,19 -9,37 -14,56 -5,0 -9,0 -14,0 0,14 0,28 0,42 -5,0 -9,0 -14,0 -5,19 -9,37 -14,56 -5,0 -9,0 -14,0 0,28 0,56 0,83 -5,0 -9,0 -14,0 0,14 0,28 0,42 -9,5 -19,9 -28,14 0,9 0,19 0,28 -14,9 -28,19 -42,28 0,9 0,19 0,28 -19,14 -37,28 -56,42 0,9 0,19 0,28 -9,5 -19,9 -28,14 0,5 0,9 0,14 -9,0 -19,0 -28,0 -9,14 -19,28 -28,42 -9,0 -19,0 -28,0 0,5 0,9 0,14 -39,23 -9,-10 -42,28 -5,0 -9,0 -14,0 0,9 0,19 0,28 -5,0 -9,0 -14,0 0,9 0,19 0,28 -5,0 -9,0 -14,0 0,14 0,28 0,42 -5,0 -9,0 -14,0 0,9 0,19 0,28 -5,0 -9,0 -14,0 0,14 0,28 0,42 -5,0 -9,0 -14,0 -5,32 -9,65 -14,97 -9,5 -19,9 -28,14 -5,19 -9,37 -14,56 -9,5 -19,9 -28,14 0,9 0,19 0,28 -14,9 -28,19 -42,28 -5,19 -9,37 -14,56 -5,0 -9,0 -14,0 -9,28 -19,56 -28,83 -5,0 -9,0 -14,0 -5,23 -9,46 -14,69 -9,5 -19,9 -28,14 0,9 0,19 0,28 -9,5 -19,9 -28,14 0,9 0,19 0,28 -9,5 -19,9 -28,14 -9,28 -19,56 -28,83 -5,0 -9,0 -14,0 -5,19 -9,37 -14,56 -5,0 -9,0 -14,0 0,9 0,19 0,28 -5,0 -9,0 -14,0 0,9 0,19 0,28 -5,0 -9,0 -14,0 0,9 0,19 0,28 -5,0 -9,0 -14,0 0,9 0,19 0,28 -5,0 -9,0 -14,0 0,9 0,19 0,28 -5,0 -9,0 -14,0 0,9 0,19 0,28 -5,0 -9,0 -14,0 -5,19 -9,37 -14,56 -28,23 -56,46 -83,69 -9,28 -19,56 -28,83 -9,5 -19,9 -28,14 -26,50 -4,249 14,306 5,0 9,0 14,0 9,83 19,167 28,250 5,0 9,0 14,0 5,32 9,65 14,97 5,0 9,0 14,0 0,14 0,28 0,42 5,0 9,0 14,0 0,19 0,37 0,56 5,0 9,0 14,0 0,42 0,83 0,125 6,21 26,83 14,125 -5,0 -9,0 -14,0 0,60 0,120 0,181 -5,0 -9,0 -14,0 0,37 0,74 0,111 -5,0 -9,0 -14,0 0,28 0,56 0,83 -5,0 -9,0 -14,0 -5,32 -9,65 -14,97 -5,0 -9,0 -14,0 0,19 0,37 0,56 -5,0 -9,0 -14,0 -11,25 -42,112 -28,153 5,0 9,0 14,0 0,9 0,19 0,28 5,0 9,0 14,0 5,14 9,28 14,42 51,12 70,43 125,56 10,47 50,110 28,181 -5,0 -9,0 -14,0 0,14 0,28 0,42 -5,0 -9,0 -14,0 0,9 0,19 0,28 -5,0 -9,0 -14,0 -14,40 9,106 14,125 18,67 -9,143 -14,194 -19,14 -37,28 -56,42 0,5 0,9 0,14 -19,5 -37,9 -56,14 0,5 0,9 0,14 -25,20 -33,32 -69,42 -9,36 -22,45 -42,69 -5,0 -9,0 -14,0 -5,19 -9,37 -14,56 -14,9 -28,19 -42,28 -9,32 -19,65 -28,97 -23,19 -46,37 -69,56 -9,28 -19,56 -28,83 -9,5 -19,9 -28,14 0,9 0,19 0,28 -5,0 -9,0 -14,0 0,9 0,19 0,28 -23,19 -46,37 -69,56 0,9 0,19 0,28 -9,5 -19,9 -28,14 0,9 0,19 0,28 -20,36 -44,63 -56,111 -9,0 -19,0 -28,0 -19,23 -37,46 -56,69 -14,0 -28,0 -42,0 -61,27 -81,37 -83,125 45,38 25,98 14,153 -17,9 -20,23 -28,28 -27,17 -108,33 -125,56 0,9 0,19 0,28 -5,0 -9,0 -14,0 0,9 0,19 0,28 -5,0 -9,0 -14,0 0,14 0,28 0,42 -5,0 -9,0 -14,0 0,9 0,19 0,28 -5,0 -9,0 -14,0 0,19 0,37 0,56 -23,28 -46,56 -69,83 -9,0 -19,0 -28,0 -72,42 -147,69 -153,181 114,96 -28,247 -56,333 5,65 9,130 14,194 -42,27 -13,39 -69,56 0,5 0,9 0,14 -56,9 -111,19 -167,28 0,5 0,9 0,14 -23,0 -46,0 -69,0 0,5 0,9 0,14 -9,0 -19,0 -28,0 -28,32 -56,65 -83,97 -9,0 -19,0 -28,0 -14,19 -28,37 -42,56 -9,5 -19,9 -28,14 0,9 0,19 0,28 -37,32 -74,65 -111,97 -20,31 -2,70 -14,111 -5,0 -9,0 -14,0 0,56 0,111 0,167 -5,0 -9,0 -14,0 0,28 0,56 0,83 -5,0 -9,0 -14,0 0,14 0,28 0,42 -5,0 -9,0 -14,0 0,9 0,19 0,28 -14,9 -28,19 -42,28 -9,28 -19,56 -28,83 -9,5 -19,9 -28,14 -5,37 -9,74 -14,111 -5,0 -9,0 -14,0 0,14 0,28 0,42 -5,0 -9,0 -14,0 -5,28 -9,56 -14,83 -5,0 -9,0 -14,0 0,9 0,19 0,28 -9,5 -19,9 -28,14 -5,28 -9,56 -14,83 -5,0 -9,0 -14,0 0,5 0,9 0,14 -14,5 -28,9 -42,14 0,5 0,9 0,14 -14,0 -28,0 -42,0 -9,14 -19,28 -28,42 -5,0 -9,0 -14,0 0,9 0,19 0,28 -5,0 -9,0 -14,0 -20,52 12,114 28,139 9,5 19,9 28,14 29,46 54,172 28,236 -5,0 -9,0 -14,0 0,9 0,19 0,28 -9,5 -19,9 -28,14 0,9 0,19 0,28 -5,0 -9,0 -14,0 -5,19 -9,37 -14,56 -5,0 -9,0 -14,0 -5,32 -9,65 -14,97 -5,0 -9,0 -14,0 0,9 0,19 0,28 -5,0 -9,0 -14,0 0,14 0,28 0,42 -9,5 -19,9 -28,14 0,9 0,19 0,28 -23,19 -46,37 -69,56 0,9 0,19 0,28 -9,5 -19,9 -28,14 -23,28 -46,56 -69,83 -14,9 -28,19 -42,28 -9,32 -19,65 -28,97 -5,0 -9,0 -14,0 0,9 0,19 0,28 -5,0 -9,0 -14,0 0,9 0,19 0,28 -9,5 -19,9 -28,14 -5,19 -9,37 -14,56 -5,0 -9,0 -14,0 -37,84 15,157 -14,250 -5,0 -9,0 -14,0 0,19 0,37 0,56 -5,0 -9,0 -14,0 0,9 0,19 0,28 -5,0 -9,0 -14,0 0,14 0,28 0,42 -9,5 -19,9 -28,14 0,9 0,19 0,28 -19,14 -37,28 -56,42 -5,93 -9,185 -14,278 -5,0 -9,0 -14,0 0,14 0,28 0,42 -5,0 -9,0 -14,0 0,14 0,28 0,42 -5,0 -9,0 -14,0 0,14 0,28 0,42 -5,0 -9,0 -14,0 0,9 0,19 0,28 -5,0 -9,0 -14,0 0,14 0,28 0,42 -5,0 -9,0 -14,0 0,9 0,19 0,28 -5,0 -9,0 -14,0 0,9 0,19 0,28 -9,5 -19,9 -28,14 -9,46 -19,93 -28,139 -5,0 -9,0 -14,0 0,42 0,83 0,125 -5,0 -9,0 -14,0 0,14 0,28 0,42 -5,0 -9,0 -14,0 0,14 0,28 0,42 -5,0 -9,0 -14,0 -5,19 -9,37 -14,56 -14,9 -28,19 -42,28 -9,28 -19,56 -28,83 -5,0 -9,0 -14,0 0,9 0,19 0,28 -5,0 -9,0 -14,0 -17,47 20,126 28,153 -5,56 -9,111 -14,167 -14,9 -28,19 -42,28 0,5 0,9 0,14 -9,0 -19,0 -28,0 0,5 0,9 0,14 -59,35 -83,29 -83,125 28,24 106,179 83,250 -5,0 -9,0 -14,0 -5,28 -9,56 -14,83 -5,0 -9,0 -14,0 0,9 0,19 0,28 -5,0 -9,0 -14,0 0,19 0,37 0,56 -5,0 -9,0 -14,0 0,14 0,28 0,42 -5,0 -9,0 -14,0 0,9 0,19 0,28 -5,0 -9,0 -14,0 0,9 0,19 0,28 -28,51 -59,47 -69,125 14,9 28,19 42,28 0,5 0,9 0,14 9,0 19,0 28,0 0,5 0,9 0,14 9,0 19,0 28,0 0,5 0,9 0,14 38,23 26,-13 42,42 101,89 -2,247 -28,333 -35,116 66,245 28,375 -5,0 -9,0 -14,0 0,23 0,46 0,69 -5,0 -9,0 -14,0 0,14 0,28 0,42 -5,0 -9,0 -14,0 0,9 0,19 0,28 -5,0 -9,0 -14,0 0,14 0,28 0,42 -5,0 -9,0 -14,0 0,14 0,28 0,42 -5,0 -9,0 -14,0 -5,14 -9,28 -14,42 -14,9 -28,19 -42,28 -9,16 -40,202 -28,236 5,0 9,0 14,0 23,52 103,157 69,250 -5,0 -9,0 -14,0 -9,28 -19,56 -28,83 -5,0 -9,0 -14,0 0,14 0,28 0,42 -9,5 -19,9 -28,14 -13,20 -63,121 -56,153 5,0 9,0 14,0 0,14 0,28 0,42 5,0 9,0 14,0 0,14 0,28 0,42 5,0 9,0 14,0 0,14 0,28 0,42 5,0 9,0 14,0 0,23 0,46 0,69 5,0 9,0 14,0 0,97 0,194 0,292 12,44 32,300 14,361 -5,0 -9,0 -14,0 0,19 0,37 0,56 -5,0 -9,0 -14,0 0,19 0,37 0,56 -5,0 -9,0 -14,0 0,19 0,37 0,56 -5,0 -9,0 -14,0 0,9 0,19 0,28 -5,0 -9,0 -14,0 0,14 0,28 0,42 -5,0 -9,0 -14,0 0,9 0,19 0,28 -9,5 -19,9 -28,14 0,9 0,19 0,28 -9,5 -19,9 -28,14 0,19 0,37 0,56 -5,0 -9,0 -14,0 0,32 0,65 0,97 5,0 9,0 14,0 0,23 0,46 0,69 5,0 9,0 14,0 0,9 0,19 0,28 14,9 28,19 42,28 19,30 14,74 28,111 5,0 9,0 14,0 0,74 0,148 0,222 -5,0 -9,0 -14,0 -16,61 30,156 42,194 0,32 0,65 0,97 -5,0 -9,0 -14,0 0,19 0,37 0,56 -5,0 -9,0 -14,0 0,9 0,19 0,28 -5,0 -9,0 -14,0 0,9 0,19 0,28 -9,5 -19,9 -28,14 -36,39 -53,62 -56,139 29,26 92,178 69,250 -5,0 -9,0 -14,0 -5,56 -9,111 -14,167 8,28 40,93 28,139 -5,0 -9,0 -14,0 0,74 0,148 0,222 5,0 9,0 14,0 13,39 29,183 14,236 -5,0 -9,0 -14,0 0,23 0,46 0,69 -5,0 -9,0 -14,0 -10,23 -40,103 -28,139 5,0 9,0 14,0 5,19 9,37 14,56 5,0 9,0 14,0 0,23 0,46 0,69 5,0 9,0 14,0 -5,79 -9,157 -14,236 5,0 9,0 14,0 9,28 19,56 28,83 5,0 9,0 14,0 5,19 9,37 14,56 19,14 37,28 56,42 5,19 9,37 14,56 5,0 9,0 14,0 19,111 37,222 56,333 5,0 9,0 14,0 0,9 0,19 0,28 9,5 19,9 28,14 18,30 2,57 14,97 5,0 9,0 14,0 -5,167 -9,333 -14,500 5,0 9,0 14,0 5,65 9,130 14,194 5,0 9,0 14,0 0,14 0,28 0,42 5,0 9,0 14,0 0,19 0,37 0,56 5,0 9,0 14,0 0,14 0,28 0,42 5,0 9,0 14,0 9,51 19,102 28,153 5,0 9,0 14,0 0,28 0,56 0,83 5,0 9,0 14,0 0,37 0,74 0,111 -5,0 -9,0 -14,0 0,28 0,56 0,83 -5,0 -9,0 -14,0 -17,49 -51,217 -28,292 5,0 9,0 14,0 0,14 0,28 0,42 5,0 9,0 14,0 0,19 0,37 0,56 5,0 9,0 14,0 24,79 -26,212 -42,264 0,51 0,102 0,153 -5,0 -9,0 -14,0 0,60 0,120 0,181 -5,0 -9,0 -14,0 0,46 0,93 0,139 -5,0 -9,0 -14,0 0,32 0,65 0,97 -5,0 -9,0 -14,0 -23,79 13,281 28,333 5,111 9,222 14,333 5,0 9,0 14,0 0,19 0,37 0,56 9,5 19,9 28,14 0,9 0,19 0,28 9,5 19,9 28,14 0,9 0,19 0,28 5,0 9,0 14,0 0,19 0,37 0,56 5,0 9,0 14,0 31,103 -32,271 -56,333 -5,0 -9,0 -14,0 -27,80 8,206 28,278 -5,42 -9,83 -14,125 -5,0 -9,0 -14,0 0,9 0,19 0,28 -5,0 -9,0 -14,0 0,88 0,176 0,264 -5,0 -9,0 -14,0 0,23 0,46 0,69 -5,0 -9,0 -14,0 5,250 9,500 14,750 -23,130 -46,259 -69,389 0,69 0,139 0,208 5,0 9,0 14,0 5,51 9,102 14,153 5,0 9,0 14,0 0,19 0,37 0,56 5,0 9,0 14,0 5,46 9,93 14,139 5,0 9,0 14,0 0,32 0,65 0,97 5,0 9,0 14,0 0,9 0,19 0,28 5,0 9,0 14,0 0,14 0,28 0,42 5,0 9,0 14,0 38,113 -91,282 -56,333 9,45 30,82 56,111 9,5 19,9 28,14 0,9 0,19 0,28 5,0 9,0 14,0 0,9 0,19 0,28 5,0 9,0 14,0 0,14 0,28 0,42 5,0 9,0 14,0 0,9 0,19 0,28 5,0 9,0 14,0 9,74 19,148 28,222 0,37 0,74 0,111 5,0 9,0 14,0 0,14 0,28 0,42 5,0 9,0 14,0 0,14 0,28 0,42 5,0 9,0 14,0 0,14 0,28 0,42 5,0 9,0 14,0 0,14 0,28 0,42 5,0 9,0 14,0 5,32 9,65 14,97 9,5 19,9 28,14 5,19 9,37 14,56 19,14 37,28 56,42 0,9 0,19 0,28 5,0 9,0 14,0 0,19 0,37 0,56 24,72 51,225 28,333 -5,0 -9,0 -14,0 5,28 9,56 14,83 -5,0 -9,0 -14,0 -8,43 20,74 28,111 88,52 202,132 236,236 5,97 9,194 14,292 45,153 52,358 97,514 0,42 0,83 0,125 5,0 9,0 14,0 0,83 0,167 0,250 -5,0 -9,0 -14,0 -22,80 12,292 28,347 0,37 0,74 0,111 5,0 9,0 14,0 0,19 0,37 0,56 5,0 9,0 14,0 0,19 0,37 0,56 37,111 74,222 111,333 0,37 0,74 0,111 5,0 9,0 14,0 5,60 9,120 14,181 5,0 9,0 14,0 0,19 0,37 0,56 5,0 9,0 14,0 0,19 0,37 0,56 5,0 9,0 14,0 0,14 0,28 0,42 9,5 19,9 28,14 0,9 0,19 0,28 5,0 9,0 14,0 5,19 9,37 14,56 5,0 9,0 14,0 0,14 0,28 0,42 9,5 19,9 28,14 0,9 0,19 0,28 5,0 9,0 14,0 0,9 0,19 0,28 5,0 9,0 14,0 0,9 0,19 0,28 5,0 9,0 14,0 0,9 0,19 0,28 9,5 19,9 28,14 0,9 0,19 0,28 5,0 9,0 14,0 0,19 0,37 0,56 5,0 9,0 14,0 0,19 0,37 0,56 5,0 9,0 14,0 0,65 0,130 0,194 5,0 9,0 14,0 0,28 0,56 0,83 5,0 9,0 14,0 0,23 0,46 0,69 5,0 9,0 14,0 0,19 0,37 0,56 9,5 19,9 28,14 0,14 0,28 0,42 14,9 28,19 42,28 5,23 9,46 14,69 5,0 9,0 14,0 45,141 -103,256 -56,403 5,0 9,0 14,0 0,14 0,28 0,42 5,0 9,0 14,0 0,9 0,19 0,28 5,0 9,0 14,0 5,42 9,83 14,125 5,0 9,0 14,0 0,79 0,157 0,236 0,210 -20,472 28,639 0,97 0,194 0,292 5,0 9,0 14,0 14,39 11,77 28,111 5,0 9,0 14,0 0,9 0,19 0,28 5,0 9,0 14,0 44,124 -117,212 -69,347 5,0 9,0 14,0 5,23 9,46 14,69 5,0 9,0 14,0 5,19 9,37 14,56 5,0 9,0 14,0 0,42 0,83 0,125 5,0 9,0 14,0 -5,148 -9,296 -14,444 5,0 9,0 14,0 5,42 9,83 14,125 5,0 9,0 14,0 0,14 0,28 0,42 5,0 9,0 14,0 0,23 0,46 0,69 5,0 9,0 14,0 5,97 9,194 14,292 5,0 9,0 14,0 0,14 0,28 0,42 5,0 9,0 14,0 0,14 0,28 0,42 5,0 9,0 14,0 0,14 0,28 0,42 5,0 9,0 14,0 5,111 9,222 14,333 14,83 28,167 42,250 5,0 9,0 14,0 9,46 19,93 28,139 20,56 72,190 42,292 -5,0 -9,0 -14,0 0,19 0,37 0,56 -5,0 -9,0 -14,0 0,9 0,19 0,28 -5,0 -9,0 -14,0 0,14 0,28 0,42 -5,0 -9,0 -14,0 -5,37 -9,74 -14,111 -5,0 -9,0 -14,0 5,97 9,194 14,292 -5,0 -9,0 -14,0 0,9 0,19 0,28 -9,5 -19,9 -28,14 0,9 0,19 0,28 -9,5 -19,9 -28,14 -22,26 -25,50 -28,97 79,62 85,203 42,306 -46,27 -139,132 -236,97 0,-5 0,-9 0,-14 -9,0 -19,0 -28,0 0,-5 0,-9 0,-14 -9,0 -19,0 -28,0 0,-5 0,-9 0,-14 -14,-5 -28,-9 -42,-14 0,-9 0,-19 0,-28 -65,-19 -57,-42 -83,-97 -5,0 -9,0 -14,0 0,-19 0,-37 0,-56 -5,0 -9,0 -14,0 0,-19 0,-37 0,-56 -5,0 -9,0 -14,0 0,-9 0,-19 0,-28 -5,0 -9,0 -14,0 0,-28 0,-56 0,-83 -5,0 -9,0 -14,0 0,-14 0,-28 0,-42 -9,-5 -19,-9 -28,-14 0,-9 0,-19 0,-28 -5,0 -9,0 -14,0 0,-9 0,-19 0,-28 -5,0 -9,0 -14,0 -14,-69 -28,-139 -42,-208 -5,0 -9,0 -14,0 0,-9 0,-19 0,-28 -5,0 -9,0 -14,0 -5,-23 -9,-46 -14,-69 -9,-5 -19,-9 -28,-14 0,-9 0,-19 0,-28 -9,-5 -19,-9 -28,-14 -9,-42 -19,-83 -28,-125 -9,-5 -19,-9 -28,-14 -15,-28 -11,-83 -28,-111 -9,-5 -19,-9 -28,-14 -14,-83 -28,-167 -42,-250 -5,0 -9,0 -14,0 0,-9 0,-19 0,-28 -9,-5 -19,-9 -28,-14 -5,-19 -9,-37 -14,-56 -9,-5 -19,-9 -28,-14 0,-9 0,-19 0,-28 -14,-9 -28,-19 -42,-28 -9,-46 -19,-93 -28,-139 -9,-5 -19,-9 -28,-14 -9,-28 -19,-56 -28,-83 -9,-5 -19,-9 -28,-14 -5,-14 -9,-28 -14,-42 -5,0 -9,0 -14,0 -16,-26 -14,-87 -28,-111 -9,-5 -19,-9 -28,-14 -19,-23 -37,-46 -56,-69 -9,-5 -19,-9 -28,-14 -5,-19 -9,-37 -14,-56 -5,0 -9,0 -14,0 0,-28 0,-56 0,-83 5,0 9,0 14,0 -5,-37 -9,-74 -14,-111 -23,-32 -46,-65 -69,-97 -14,-5 -28,-9 -42,-14 0,-9 0,-19 0,-28 -14,-9 -28,-19 -42,-28 0,-9 0,-19 0,-28 -14,-9 -28,-19 -42,-28 0,-9 0,-19 0,-28 -19,-14 -37,-28 -56,-42 0,-9 0,-19 0,-28 -5,0 -9,0 -14,0 0,-9 0,-19 0,-28 -5,0 -9,0 -14,0 0,-14 0,-28 0,-42 -5,0 -9,0 -14,0 0,-37 0,-74 0,-111 -26,-92 -58,-271 -28,-375 5,0 9,0 14,0 22,-82 -61,-133 -42,-208 20,-77 65,-145 69,-236 -14,-9 -28,-19 -42,-28 0,-5 0,-9 0,-14 -9,0 -19,0 -28,0 -47,-28 -67,-65 -69,-139 5,0 9,0 14,0 5,-23 9,-46 14,-69 5,0 9,0 14,0 5,-9 9,-19 14,-28 9,0 19,0 28,0 28,-42 56,-83 83,-125 0,-79 0,-157 0,-236 5,0 9,0 14,0 0,-14 0,-28 0,-42 5,0 9,0 14,0 -19,-83 -37,-167 -56,-250 -5,0 -9,0 -14,0 0,-19 0,-37 0,-56 -5,0 -9,0 -14,0 0,-56 0,-111 0,-167 -5,0 -9,0 -14,0 -16,-56 1,-309 14,-347 5,0 9,0 14,0 5,-60 9,-120 14,-181 -5,0 -9,0 -14,0 -5,-19 -9,-37 -14,-56 -5,0 -9,0 -14,0 0,-9 0,-19 0,-28 -9,-5 -19,-9 -28,-14 0,-9 0,-19 0,-28 -9,-5 -19,-9 -28,-14 0,-9 0,-19 0,-28 -5,0 -9,0 -14,0 -5,-97 -9,-194 -14,-292 -5,0 -9,0 -14,0 0,-23 0,-46 0,-69 -5,0 -9,0 -14,0 0,-32 0,-65 0,-97 -5,0 -9,0 -14,0 -5,-111 -9,-222 -14,-333 5,0 9,0 14,0 5,-28 9,-56 14,-83 5,0 9,0 14,0 5,-19 9,-37 14,-56 5,0 9,0 14,0 0,-23 0,-46 0,-69 5,0 9,0 14,0 11,-68 -82,-157 -97,-222 -14,-5 -28,-9 -42,-14 -23,-42 -46,-83 -69,-125 -15,-49 19,-124 28,-153 17,-52 52,-326 28,-403 -5,0 -9,0 -14,0 0,-14 0,-28 0,-42 -5,0 -9,0 -14,0 0,-9 0,-19 0,-28 -5,0 -9,0 -14,0 -12,-31 -29,-190 -14,-236 5,0 9,0 14,0 0,-14 0,-28 0,-42 9,-5 19,-9 28,-14 0,-14 0,-28 0,-42 5,0 9,0 14,0 -5,-74 -9,-148 -14,-222 -5,0 -9,0 -14,0 5,-74 9,-148 14,-222 -5,0 -9,0 -14,0 0,-9 0,-19 0,-28 -5,0 -9,0 -14,0 -16,-21 -19,-24 -28,-56 -45,-10 -72,-39 -83,-83 -5,0 -9,0 -14,0 0,-32 0,-65 0,-97 28,-32 56,-65 83,-97 5,0 9,0 14,0 0,-37 0,-74 0,-111 -75,-79 51,-169 56,-264 2,-45 0,-82 -14,-111 -5,0 -9,0 -14,0 -5,-23 -9,-46 -14,-69 -5,0 -9,0 -14,0 0,-14 0,-28 0,-42 -5,0 -9,0 -14,0 0,-14 0,-28 0,-42 -5,0 -9,0 -14,0 0,-28 0,-56 0,-83 -5,0 -9,0 -14,0 -13,-58 52,-86 28,-153 -5,0 -9,0 -14,0 0,-9 0,-19 0,-28 -14,-9 -28,-19 -42,-28 -5,-19 -9,-37 -14,-56 -9,-5 -19,-9 -28,-14 -9,-28 -19,-56 -28,-83 -5,0 -9,0 -14,0 -9,-28 -19,-56 -28,-83 -5,0 -9,0 -14,0 0,-23 0,-46 0,-69 -5,0 -9,0 -14,0 0,-14 0,-28 0,-42 -5,0 -9,0 -14,0 -9,-14 -19,-28 -28,-42 -27,-17 -85,-11 -125,0 0,0 -12,23 -42,14 0,-5 0,-9 0,-14 -9,0 -19,0 -28,0 0,-5 0,-9 0,-14 -19,-5 -37,-9 -56,-14 -23,-28 -46,-56 -69,-83 -4,-78 -12,-75 14,-139 80,-29 186,-38 250,-83 23,-32 46,-65 69,-97 5,-75 23,-170 42,-236 0,-42 0,-83 0,-125 5,0 9,0 14,0 0,-9 0,-19 0,-28 5,0 9,0 14,0 5,-51 9,-102 14,-153 -5,0 -9,0 -14,0 0,-14 0,-28 0,-42 -5,0 -9,0 -14,0 0,-19 0,-37 0,-56 -5,0 -9,0 -14,0 5,-46 9,-93 14,-139 -5,0 -9,0 -14,0 0,-9 0,-19 0,-28 -5,0 -9,0 -14,0 0,-14 0,-28 0,-42 -5,0 -9,0 -14,0 0,-9 0,-19 0,-28 -5,0 -9,0 -14,0 0,-9 0,-19 0,-28 -14,-9 -28,-19 -42,-28 -5,-14 -9,-28 -14,-42 -5,0 -9,0 -14,0 0,-9 0,-19 0,-28 -14,-9 -28,-19 -42,-28 0,-14 0,-28 0,-42 -9,-5 -19,-9 -28,-14 0,-19 0,-37 0,-56 -5,0 -9,0 -14,0 0,-14 0,-28 0,-42 -5,0 -9,0 -14,0 0,-9 0,-19 0,-28 -5,0 -9,0 -14,0 0,-28 0,-56 0,-83 -5,0 -9,0 -14,0 0,-14 0,-28 0,-42 -9,-5 -19,-9 -28,-14 -36,-53 -6,-53 -97,-56 -5,14 -9,28 -14,42 -5,0 -9,0 -14,0 0,9 0,19 0,28 -5,0 -9,0 -14,0 -14,60 -28,120 -42,181 -25,14 -58,46 -83,56 -37,0 -74,0 -111,0 -18,-22 -40,-29 -56,-56 -80,-83 45,-292 0,-431 -5,0 -9,0 -14,0 0,-14 0,-28 0,-42 -5,0 -9,0 -14,0 0,-9 0,-19 0,-28 -5,0 -9,0 -14,0 0,-9 0,-19 0,-28 -9,-5 -19,-9 -28,-14 -5,-19 -9,-37 -14,-56 -9,-5 -19,-9 -28,-14 0,-9 0,-19 0,-28 -5,0 -9,0 -14,0 -14,-171 -28,-343 -42,-514 -5,0 -9,0 -14,0 0,-14 0,-28 0,-42 -5,0 -9,0 -14,0 0,-19 0,-37 0,-56 -5,0 -9,0 -14,0 -5,-19 -9,-37 -14,-56 -5,0 -9,0 -14,0 0,-9 0,-19 0,-28 -14,-9 -28,-19 -42,-28 -18,-28 -3,-60 -14,-97 -5,0 -9,0 -14,0 0,-23 0,-46 0,-69 5,0 9,0 14,0 0,-28 0,-56 0,-83 5,0 9,0 14,0 0,-9 0,-19 0,-28 5,0 9,0 14,0 16,-29 49,-95 28,-153 -5,0 -9,0 -14,0 -5,-19 -9,-37 -14,-56 -9,-5 -19,-9 -28,-14 -5,-23 -9,-46 -14,-69 -5,0 -9,0 -14,0 0,-14 0,-28 0,-42 -25,-58 -67,-125 -69,-208 9,-83 19,-167 28,-250 5,0 9,0 14,0 5,-19 9,-37 14,-56 5,0 9,0 14,0 5,-23 9,-46 14,-69 5,0 9,0 14,0 14,-40 -8,-106 -14,-125 0,-28 0,-56 0,-83 -22,-73 -33,-157 -28,-264 3,-61 90,-204 83,-222 -5,0 -9,0 -14,0 -11,-51 -33,-82 -56,-125 -5,0 -9,0 -14,0 -21,-46 -50,-365 -28,-444 5,0 9,0 14,0 0,-28 0,-56 0,-83 5,0 9,0 14,0 0,-19 0,-37 0,-56 5,0 9,0 14,0 0,-23 0,-46 0,-69 5,0 9,0 14,0 0,-74 0,-148 0,-222 6,-21 26,-83 14,-125 -5,0 -9,0 -14,0 0,-23 0,-46 0,-69 -5,0 -9,0 -14,0 0,-19 0,-37 0,-56 -5,0 -9,0 -14,0 -9,-28 -19,-56 -28,-83 -5,0 -9,0 -14,0 0,-14 0,-28 0,-42 -5,0 -9,0 -14,0 0,-9 0,-19 0,-28 -5,0 -9,0 -14,0 -5,-65 -9,-130 -14,-194 5,0 9,0 14,0 0,-37 0,-74 0,-111 -33,-115 -37,-262 -69,-375 0,-69 0,-139 0,-208 5,0 9,0 14,0 0,-51 0,-102 0,-153 0,0 21,-12 14,-42 -5,0 -9,0 -14,0 0,-46 0,-93 0,-139 -5,0 -9,0 -14,0 0,-37 0,-74 0,-111 -5,0 -9,0 -14,0 0,-14 0,-28 0,-42 -5,0 -9,0 -14,0 -5,-32 -9,-65 -14,-97 -5,0 -9,0 -14,0 0,-9 0,-19 0,-28 -5,0 -9,0 -14,0 0,-14 0,-28 0,-42 -5,0 -9,0 -14,0 -5,-79 -9,-157 -14,-236 -5,0 -9,0 -14,0 0,-9 0,-19 0,-28 -5,0 -9,0 -14,0 0,-19 0,-37 0,-56 -5,0 -9,0 -14,0 0,-14 0,-28 0,-42 -5,0 -9,0 -14,0 0,-9 0,-19 0,-28 -5,0 -9,0 -14,0 -5,-28 -9,-56 -14,-83 -5,0 -9,0 -14,0 0,-9 0,-19 0,-28 -5,0 -9,0 -14,0 -5,-19 -9,-37 -14,-56 -5,0 -9,0 -14,0 -9,-42 -19,-83 -28,-125 -5,0 -9,0 -14,0 0,-74 0,-148 0,-222 -5,0 -9,0 -14,0 0,-28 0,-56 0,-83 -5,0 -9,0 -14,0 0,-23 0,-46 0,-69 -5,0 -9,0 -14,0 0,-9 0,-19 0,-28 -5,0 -9,0 -14,0 0,-14 0,-28 0,-42 -5,0 -9,0 -14,0 0,-14 0,-28 0,-42 -5,0 -9,0 -14,0 0,-19 0,-37 0,-56 -5,0 -9,0 -14,0 -5,-46 -9,-93 -14,-139 -5,0 -9,0 -14,0 -5,-32 -9,-65 -14,-97 -5,0 -9,0 -14,0 -9,-28 -19,-56 -28,-83 -5,0 -9,0 -14,0 0,-9 0,-19 0,-28 -5,0 -9,0 -14,0 0,-9 0,-19 0,-28 -9,-5 -19,-9 -28,-14 0,-14 0,-28 0,-42 -5,0 -9,0 -14,0 0,-9 0,-19 0,-28 -5,0 -9,0 -14,0 -5,-28 -9,-56 -14,-83 -9,-5 -19,-9 -28,-14 -9,-42 -19,-83 -28,-125 -9,-5 -19,-9 -28,-14 0,-14 0,-28 0,-42 -5,0 -9,0 -14,0 -14,-79 -28,-157 -42,-236 -5,0 -9,0 -14,0 0,-9 0,-19 0,-28 -5,0 -9,0 -14,0 0,-23 0,-46 0,-69 -5,0 -9,0 -14,0 0,-9 0,-19 0,-28 -9,-5 -19,-9 -28,-14 -9,-42 -19,-83 -28,-125 -5,0 -9,0 -14,0 0,-14 0,-28 0,-42 -5,0 -9,0 -14,0 -51,-241 -102,-482 -153,-722 0,-83 0,-167 0,-250 -5,-139 -9,-278 -14,-417 5,0 9,0 14,0 0,-14 0,-28 0,-42 5,0 9,0 14,0 0,-14 0,-28 0,-42 5,0 9,0 14,0 0,-19 0,-37 0,-56 5,0 9,0 14,0 10,-35 -18,-153 -28,-181 -5,0 -9,0 -14,0 0,-28 0,-56 0,-83 9,-97 19,-194 28,-292 -5,0 -9,0 -14,0 0,-32 0,-65 0,-97 -5,0 -9,0 -14,0 0,-32 0,-65 0,-97 -5,0 -9,0 -14,0 -13,-45 7,-115 14,-139 0,-60 0,-120 0,-181 -5,0 -9,0 -14,0 0,-74 0,-148 0,-222 -5,0 -9,0 -14,0 0,-74 0,-148 0,-222 -5,0 -9,0 -14,0 0,-42 0,-83 0,-125 -5,0 -9,0 -14,0 0,-23 0,-46 0,-69 -5,0 -9,0 -14,0 0,-23 0,-46 0,-69 -5,0 -9,0 -14,0 0,-42 0,-83 0,-125 -5,0 -9,0 -14,0 0,-65 0,-130 0,-194 -5,0 -9,0 -14,0 0,-83 0,-167 0,-250 -5,0 -9,0 -14,0 0,-32 0,-65 0,-97 -5,0 -9,0 -14,0 0,-23 0,-46 0,-69 -5,0 -9,0 -14,0 0,-125 0,-250 0,-375 -5,0 -9,0 -14,0 0,-28 0,-56 0,-83 -5,0 -9,0 -14,0 0,-14 0,-28 0,-42 -5,0 -9,0 -14,0 0,-9 0,-19 0,-28 -5,0 -9,0 -14,0 -5,-32 -9,-65 -14,-97 -5,0 -9,0 -14,0 0,-14 0,-28 0,-42 -5,0 -9,0 -14,0 -9,-51 -19,-102 -28,-153 -5,0 -9,0 -14,0 0,-19 0,-37 0,-56 -5,0 -9,0 -14,0 0,-23 0,-46 0,-69 -5,0 -9,0 -14,0 0,-37 0,-74 0,-111 -5,0 -9,0 -14,0 0,-42 0,-83 0,-125 -5,0 -9,0 -14,0 5,-74 9,-148 14,-222 5,0 9,0 14,0 0,-51 0,-102 0,-153 -5,0 -9,0 -14,0 -27,-97 23,-267 42,-333 -5,-162 -9,-324 -14,-486 5,0 9,0 14,0 19,-83 37,-167 56,-250 6,-91 -56,-206 -28,-306 5,0 9,0 14,0 0,-23 0,-46 0,-69 5,0 9,0 14,0 0,-23 0,-46 0,-69 5,0 9,0 14,0 23,-79 -8,-214 14,-292 0,-56 0,-111 0,-167 37,-157 74,-315 111,-472 0,-83 0,-167 0,-250 5,0 9,0 14,0 0,-28 0,-56 0,-83 -5,0 -9,0 -14,0 0,-42 0,-83 0,-125 -5,0 -9,0 -14,0 0,-28 0,-56 0,-83 -5,0 -9,0 -14,0 0,-51 0,-102 0,-153 -5,0 -9,0 -14,0 0,-19 0,-37 0,-56 -5,0 -9,0 -14,0 0,-23 0,-46 0,-69 -5,0 -9,0 -14,0 -7,-30 14,-42 14,-42 0,-83 0,-167 0,-250 -5,0 -9,0 -14,0 0,-14 0,-28 0,-42 -5,0 -9,0 -14,0 0,-9 0,-19 0,-28 -5,0 -9,0 -14,0 0,-9 0,-19 0,-28 -9,-5 -19,-9 -28,-14 0,-9 0,-19 0,-28 -5,0 -9,0 -14,0 -9,-83 -19,-167 -28,-250 -5,0 -9,0 -14,0 0,-14 0,-28 0,-42 -5,0 -9,0 -14,0 0,-14 0,-28 0,-42 -5,0 -9,0 -14,0 0,-19 0,-37 0,-56 -5,0 -9,0 -14,0 5,-106 9,-213 14,-319 -5,0 -9,0 -14,0 0,-19 0,-37 0,-56 -5,0 -9,0 -14,0 0,-14 0,-28 0,-42 -5,0 -9,0 -14,0 0,-14 0,-28 0,-42 -5,0 -9,0 -14,0 -5,-65 -9,-130 -14,-194 -5,0 -9,0 -14,0 0,-14 0,-28 0,-42 -5,0 -9,0 -14,0 0,-9 0,-19 0,-28 -5,0 -9,0 -14,0 0,-19 0,-37 0,-56 -5,0 -9,0 -14,0 -5,-116 -9,-231 -14,-347 -5,0 -9,0 -14,0 -5,-19 -9,-37 -14,-56 -5,0 -9,0 -14,0 0,-19 0,-37 0,-56 -5,0 -9,0 -14,0 0,-9 0,-19 0,-28 -5,0 -9,0 -14,0 0,-23 0,-46 0,-69 -5,0 -9,0 -14,0 -5,-23 -9,-46 -14,-69 -9,-5 -19,-9 -28,-14 0,-9 0,-19 0,-28 -5,0 -9,0 -14,0 0,-5 0,-9 0,-14 -14,-5 -28,-9 -42,-14 0,-5 0,-9 0,-14 -23,-11 -56,9 -69,-14 0,-19 0,-37 0,-56 14,-9 28,-19 42,-28 0,-5 0,-9 0,-14 19,-5 37,-9 56,-14 28,-32 56,-65 83,-97 -5,-56 -9,-111 -14,-167 -5,0 -9,0 -14,0 0,-9 0,-19 0,-28 -19,-37 -44,-60 -56,-111 -24,-4 -28,-14 -28,-14 -28,0 -56,0 -83,0 -9,-23 -19,-46 -28,-69 -57,-66 -134,-39 -139,-167 16,-16 6,0 14,-28 38,8 60,20 83,42 5,9 9,19 14,28 9,0 19,0 28,0 47,25 65,39 139,42 14,-63 69,-141 42,-236 -6,-21 -36,-107 -28,-139 5,0 9,0 14,0 0,-28 0,-56 0,-83 5,0 9,0 14,0 26,-93 -10,-262 -28,-319 0,-28 0,-56 0,-83 -5,0 -9,0 -14,0 0,-9 0,-19 0,-28 -19,-14 -37,-28 -56,-42 0,-19 0,-37 0,-56 -5,0 -9,0 -14,0 5,-74 9,-148 14,-222 -23,-167 -46,-333 -69,-500 -19,-14 -37,-28 -56,-42 0,-9 0,-19 0,-28 -5,0 -9,0 -14,0 0,-19 0,-37 0,-56 -5,0 -9,0 -14,0 0,-19 0,-37 0,-56 -5,0 -9,0 -14,0 0,-23 0,-46 0,-69 -5,0 -9,0 -14,0 0,-19 0,-37 0,-56 -5,0 -9,0 -14,0 0,-28 0,-56 0,-83 -5,0 -9,0 -14,0 5,-74 9,-148 14,-222 -5,0 -9,0 -14,0 0,-28 0,-56 0,-83 -5,0 -9,0 -14,0 -9,-28 -19,-56 -28,-83 -5,0 -9,0 -14,0 0,-23 0,-46 0,-69 0,-1 -21,-11 -14,-42 5,0 9,0 14,0 0,-19 0,-37 0,-56 5,0 9,0 14,0 0,-19 0,-37 0,-56 5,0 9,0 14,0 25,-85 -13,-200 -28,-250 -19,-64 1,-247 14,-292 0,-46 0,-93 0,-139 5,0 9,0 14,0 0,-32 0,-65 0,-97 5,0 9,0 14,0 0,-93 0,-185 0,-278 5,0 9,0 14,0 9,-24 6,-36 14,-56 14,-5 28,-9 42,-14 7,-39 29,-110 14,-167 -5,0 -9,0 -14,0 0,-51 0,-102 0,-153 5,0 9,0 14,0 0,-19 0,-37 0,-56 5,0 9,0 14,0 0,-14 0,-28 0,-42 5,0 9,0 14,0 0,-37 0,-74 0,-111 5,0 9,0 14,0 0,-23 0,-46 0,-69 5,0 9,0 14,0 5,-93 9,-185 14,-278 23,-69 46,-139 69,-208 14,-9 28,-19 42,-28 5,-19 9,-37 14,-56 5,0 9,0 14,0 37,-103 -55,-157 -28,-250 5,0 9,0 14,0 0,-19 0,-37 0,-56 5,0 9,0 14,0 0,-19 0,-37 0,-56 5,0 9,0 14,0 0,-23 0,-46 0,-69 5,0 9,0 14,0 5,-79 9,-157 14,-236 5,0 9,0 14,0 14,-116 28,-231 42,-347 -5,0 -9,0 -14,0 0,-9 0,-19 0,-28 -5,0 -9,0 -14,0 0,-14 0,-28 0,-42 -9,-5 -19,-9 -28,-14 0,-9 0,-19 0,-28 -9,-5 -19,-9 -28,-14 -17,-29 -3,-60 -14,-97 -5,0 -9,0 -14,0 -30,-110 115,-190 69,-347 -5,0 -9,0 -14,0 0,-23 0,-46 0,-69 -5,0 -9,0 -14,0 0,-19 0,-37 0,-56 -5,0 -9,0 -14,0 0,-19 0,-37 0,-56 -5,0 -9,0 -14,0 0,-111 0,-222 0,-333 -5,0 -9,0 -14,0 0,-14 0,-28 0,-42 -5,0 -9,0 -14,0 0,-9 0,-19 0,-28 -5,0 -9,0 -14,0 -5,-28 -9,-56 -14,-83 -5,0 -9,0 -14,0 0,-9 0,-19 0,-28 -5,0 -9,0 -14,0 0,-14 0,-28 0,-42 -5,0 -9,0 -14,0 0,-14 0,-28 0,-42 -5,0 -9,0 -14,0 0,-14 0,-28 0,-42 -5,0 -9,0 -14,0 0,-102 0,-204 0,-306 -5,0 -9,0 -14,0 0,-32 0,-65 0,-97 -5,0 -9,0 -14,0 0,-19 0,-37 0,-56 -5,0 -9,0 -14,0 0,-28 0,-56 0,-83 -5,0 -9,0 -14,0 0,-23 0,-46 0,-69 -5,0 -9,0 -14,0 -5,-106 -9,-213 -14,-319 5,0 9,0 14,0 0,-32 0,-65 0,-97 -5,0 -9,0 -14,0 0,-32 0,-65 0,-97 -5,0 -9,0 -14,0 0,-23 0,-46 0,-69 -5,0 -9,0 -14,0 0,-125 0,-250 0,-375 -3,-40 -34,-124 -14,-181 5,0 9,0 14,0 5,-19 9,-37 14,-56 28,-23 56,-46 83,-69 0,-9 0,-19 0,-28 5,0 9,0 14,0 13,-36 -15,-118 -28,-125 -28,0 -56,0 -83,0 -12,22 -20,29 -42,42 -1,-59 -7,-71 -56,-83 -38,-34 -163,-21 -236,-28 -110,-10 -258,-14 -389,-14 -51,0 -102,0 -153,0 -67,23 -111,122 -236,83 0,-5 0,-9 0,-14 -14,0 -28,0 -42,0 0,-5 0,-9 0,-14 -9,0 -19,0 -28,0 0,-5 0,-9 0,-14 -28,-5 -56,-9 -83,-14 0,-5 0,-9 0,-14 -100,-31 -177,48 -236,69 -19,0 -37,0 -56,0 0,5 0,9 0,14 -19,0 -37,0 -56,0 0,5 0,9 0,14 -23,0 -46,0 -69,0 0,5 0,9 0,14 -56,0 -111,0 -167,0 0,5 0,9 0,14 -69,0 -139,0 -208,0 0,5 0,9 0,14 -32,8 -118,-22 -139,-28 -79,0 -157,0 -236,0 0,5 0,9 0,14 -69,0 -139,0 -208,0 0,5 0,9 0,14 -102,0 -204,0 -306,0 0,5 0,9 0,14 -28,5 -56,9 -83,14 0,5 0,9 0,14 -9,0 -19,0 -28,0 0,5 0,9 0,14 -28,9 -56,19 -83,28 0,5 0,9 0,14 -93,14 -185,28 -278,42 0,5 0,9 0,14 -14,0 -28,0 -42,0 0,5 0,9 0,14 -9,0 -19,0 -28,0 0,5 0,9 0,14 -9,0 -19,0 -28,0 -5,9 -9,19 -14,28 -14,0 -28,0 -42,0 0,5 0,9 0,14 -9,0 -19,0 -28,0 0,5 0,9 0,14 -56,9 -111,19 -167,28 0,5 0,9 0,14 -19,0 -37,0 -56,0 0,5 0,9 0,14 -19,0 -37,0 -56,0 0,5 0,9 0,14 -14,0 -28,0 -42,0 0,5 0,9 0,14 -9,0 -19,0 -28,0 0,5 0,9 0,14 -43,17 -80,-2 -111,28 -5,0 -9,0 -14,0 0,5 0,9 0,14 0,5 0,9 0,14 -14,9 -28,19 -42,28 0,14 0,28 0,42 -5,0 -9,0 -14,0 -9,17 -13,61 -28,69 -37,0 -74,0 -111,0 -33,-34 -190,-73 -250,-42 -5,9 -9,19 -14,28 -9,0 -19,0 -28,0 -5,9 -9,19 -14,28 -9,0 -19,0 -28,0 -23,28 -46,56 -69,83 -28,5 -56,9 -83,14 -5,9 -9,19 -14,28 -28,9 -56,19 -83,28 -9,14 -19,28 -28,42 -9,0 -19,0 -28,0 -5,9 -9,19 -14,28 -14,0 -28,0 -42,0 0,5 0,9 0,14 -19,0 -37,0 -56,0 0,5 0,9 0,14 -9,0 -19,0 -28,0 0,5 0,9 0,14 -46,5 -93,9 -139,14 0,5 0,9 0,14 -19,0 -37,0 -56,0 0,5 0,9 0,14 -19,0 -37,0 -56,0 0,5 0,9 0,14 -28,9 -56,19 -83,28 0,5 0,9 0,14 -23,0 -46,0 -69,0 0,5 0,9 0,14 -19,0 -37,0 -56,0 0,5 0,9 0,14 -23,0 -46,0 -69,0 0,5 0,9 0,14 -120,5 -241,9 -361,14 -53,15 -197,51 -278,28 0,-5 0,-9 0,-14 -51,-5 -102,-9 -153,-14 0,-5 0,-9 0,-14 -28,-5 -56,-9 -83,-14 0,-5 0,-9 0,-14 -9,0 -19,0 -28,0 0,-5 0,-9 0,-14 -37,-5 -74,-9 -111,-14 0,-5 0,-9 0,-14 -171,0 -343,0 -514,0 0,-5 0,-9 0,-14 -60,0 -120,0 -181,0 0,-5 0,-9 0,-14 -14,0 -28,0 -42,0 -19,5 -37,9 -56,14 0,-5 0,-9 0,-14 -51,0 -102,0 -153,0 0,-5 0,-9 0,-14 -32,0 -65,0 -97,0 0,-5 0,-9 0,-14 -23,0 -46,0 -69,0 0,-5 0,-9 0,-14 -74,-5 -148,-9 -222,-14 0,-5 0,-9 0,-14 -19,0 -37,0 -56,0 0,-5 0,-9 0,-14 -37,-5 -74,-9 -111,-14 -5,-9 -9,-19 -14,-28 -9,0 -19,0 -28,0 0,-5 0,-9 0,-14 -14,0 -28,0 -42,0 0,-5 0,-9 0,-14 -28,0 -56,0 -83,0 0,-5 0,-9 0,-14 -88,0 -176,0 -264,0 0,-5 0,-9 0,-14 -37,0 -74,0 -111,0 0,-5 0,-9 0,-14 -97,9 -194,19 -292,28 0,-5 0,-9 0,-14 -19,0 -37,0 -56,0 0,-5 0,-9 0,-14 -14,0 -28,0 -42,0 0,-5 0,-9 0,-14 -14,0 -28,0 -42,0 0,-5 0,-9 0,-14 -51,-5 -102,-9 -153,-14 0,-5 0,-9 0,-14 -14,0 -28,0 -42,0 0,-5 0,-9 0,-14 -14,0 -28,0 -42,0 0,-5 0,-9 0,-14 -14,0 -28,0 -42,0 0,-5 0,-9 0,-14 -56,-9 -111,-19 -167,-28 0,-5 0,-9 0,-14 -23,0 -46,0 -69,0 0,-5 0,-9 0,-14 -19,0 -37,0 -56,0 0,-5 0,-9 0,-14 -23,0 -46,0 -69,0 0,-5 0,-9 0,-14 -23,0 -46,0 -69,0 0,-5 0,-9 0,-14 -14,0 -28,0 -42,0 0,-5 0,-9 0,-14 -42,-5 -83,-9 -125,-14 0,-5 0,-9 0,-14 -106,5 -213,9 -319,14 -120,-14 -241,-28 -361,-42 0,-5 0,-9 0,-14 -69,-5 -139,-9 -208,-14 0,-5 0,-9 0,-14 -56,-9 -111,-19 -167,-28 0,-5 0,-9 0,-14 -9,0 -19,0 -28,0 0,-5 0,-9 0,-14 -14,0 -28,0 -42,0 0,-5 0,-9 0,-14 -23,0 -46,0 -69,0 0,-5 0,-9 0,-14 -14,0 -28,0 -42,0 0,-5 0,-9 0,-14 -19,0 -37,0 -56,0 0,-5 0,-9 0,-14 -19,0 -37,0 -56,0 0,-5 0,-9 0,-14 -19,0 -37,0 -56,0 0,-5 0,-9 0,-14 -32,0 -65,0 -97,0 0,-5 0,-9 0,-14 -14,0 -28,0 -42,0 0,-5 0,-9 0,-14 -14,0 -28,0 -42,0 0,-5 0,-9 0,-14 -14,0 -28,0 -42,0 0,-5 0,-9 0,-14 -93,-14 -185,-28 -278,-42 0,-5 0,-9 0,-14 -9,0 -19,0 -28,0 0,-5 0,-9 0,-14 -14,0 -28,0 -42,0 0,-5 0,-9 0,-14 -28,0 -56,0 -83,0 0,-5 0,-9 0,-14 -14,0 -28,0 -42,0 0,-5 0,-9 0,-14 -28,0 -56,0 -83,0 0,-5 0,-9 0,-14 -14,0 -28,0 -42,0 0,-5 0,-9 0,-14 -42,-5 -83,-9 -125,-14 0,-5 0,-9 0,-14 -42,-5 -83,-9 -125,-14 0,-5 0,-9 0,-14 -14,0 -28,0 -42,0 0,-5 0,-9 0,-14 -23,0 -46,0 -69,0 0,-5 0,-9 0,-14 -79,0 -157,0 -236,0 0,-5 0,-9 0,-14 -51,-5 -102,-9 -153,-14 0,-5 0,-9 0,-14 -14,0 -28,0 -42,0 0,-5 0,-9 0,-14 -19,0 -37,0 -56,0 0,-5 0,-9 0,-14 -42,0 -83,0 -125,0 0,-5 0,-9 0,-14 -32,0 -65,0 -97,0 0,-5 0,-9 0,-14 -19,0 -37,0 -56,0 0,-5 0,-9 0,-14 -42,-5 -83,-9 -125,-14 0,-5 0,-9 0,-14 -32,0 -65,0 -97,0 0,-5 0,-9 0,-14 -56,0 -111,0 -167,0 0,-5 0,-9 0,-14 -90,-25 -337,56 -389,83 -27,14 -86,72 -139,56 0,-5 0,-9 0,-14 -9,0 -19,0 -28,0 0,-5 0,-9 0,-14 -9,0 -19,0 -28,0 0,-5 0,-9 0,-14 -14,0 -28,0 -42,0 0,-5 0,-9 0,-14 -9,0 -19,0 -28,0 0,-5 0,-9 0,-14 -19,-5 -37,-9 -56,-14 0,-5 0,-9 0,-14 -32,-5 -65,-9 -97,-14 0,-5 0,-9 0,-14 -14,0 -28,0 -42,0 0,-5 0,-9 0,-14 -139,0 -278,0 -417,0 -52,-15 -170,-65 -250,-42 0,5 0,9 0,14 -19,0 -37,0 -56,0 -53,21 -140,115 -236,83 0,-5 0,-9 0,-14 -14,0 -28,0 -42,0 -5,-9 -9,-19 -14,-28 -9,0 -19,0 -28,0 -5,-9 -9,-19 -14,-28 -9,0 -19,0 -28,0 0,-5 0,-9 0,-14 -9,0 -19,0 -28,0 0,-5 0,-9 0,-14 -14,0 -28,0 -42,0 0,-5 0,-9 0,-14 -14,0 -28,0 -42,0 0,-5 0,-9 0,-14 -111,5 -222,9 -333,14 0,5 0,9 0,14 -51,0 -102,0 -153,0 -139,0 -281,3 -389,-28 -83,-5 -167,-9 -250,-14 0,-5 0,-9 0,-14 -42,-5 -83,-9 -125,-14 0,-5 0,-9 0,-14 -14,0 -28,0 -42,0 0,-5 0,-9 0,-14 -14,0 -28,0 -42,0 0,-5 0,-9 0,-14 -19,0 -37,0 -56,0 0,-5 0,-9 0,-14 -9,0 -19,0 -28,0 0,-5 0,-9 0,-14 -23,0 -46,0 -69,0 0,-5 0,-9 0,-14 -19,0 -37,0 -56,0 0,-5 0,-9 0,-14 -19,0 -37,0 -56,0 0,-5 0,-9 0,-14 -32,-5 -65,-9 -97,-14 0,-5 0,-9 0,-14 -9,0 -19,0 -28,0 0,-5 0,-9 0,-14 -14,0 -28,0 -42,0 0,-5 0,-9 0,-14 -9,0 -19,0 -28,0 0,-5 0,-9 0,-14 -9,0 -19,0 -28,0 -5,-9 -9,-19 -14,-28 -14,0 -28,0 -42,0 0,-5 0,-9 0,-14 -14,0 -28,0 -42,0 0,-5 0,-9 0,-14 -14,0 -28,0 -42,0 0,-5 0,-9 0,-14 -37,-5 -74,-9 -111,-14 0,-5 0,-9 0,-14 -28,-5 -56,-9 -83,-14 0,-5 0,-9 0,-14 -9,0 -19,0 -28,0 0,-5 0,-9 0,-14 -14,0 -28,0 -42,0 0,-5 0,-9 0,-14 -9,0 -19,0 -28,0 0,-5 0,-9 0,-14 -9,0 -19,0 -28,0 0,-5 0,-9 0,-14 -9,0 -19,0 -28,0 0,-5 0,-9 0,-14 -23,-5 -46,-9 -69,-14 -5,-9 -9,-19 -14,-28 -28,-9 -56,-19 -83,-28 0,-5 0,-9 0,-14 -14,-5 -28,-9 -42,-14 -5,-9 -9,-19 -14,-28 -19,-5 -37,-9 -56,-14 -5,-9 -9,-19 -14,-28 -9,0 -19,0 -28,0 0,-5 0,-9 0,-14 -9,0 -19,0 -28,0 -19,-23 -37,-46 -56,-69 -9,0 -19,0 -28,0 -14,-19 -28,-37 -42,-56 -9,0 -19,0 -28,0 -9,-14 -19,-28 -28,-42 -9,0 -19,0 -28,0 -5,-9 -9,-19 -14,-28 -19,-5 -37,-9 -56,-14 -5,-9 -9,-19 -14,-28 -9,0 -19,0 -28,0 0,-5 0,-9 0,-14 -21,-16 -25,-19 -56,-28 0,-9 0,-19 0,-28 -42,-37 -83,-74 -125,-111 -5,-19 -9,-37 -14,-56 -42,-37 -83,-74 -125,-111 0,-9 0,-19 0,-28 -23,-14 -46,-28 -69,-42 0,-9 0,-19 0,-28 -19,-14 -37,-28 -56,-42 0,-9 0,-19 0,-28 -42,-37 -83,-74 -125,-111 0,-9 0,-19 0,-28 -9,-5 -19,-9 -28,-14 0,-9 0,-19 0,-28 -23,-19 -46,-37 -69,-56 0,-9 0,-19 0,-28 -9,-5 -19,-9 -28,-14 0,-5 0,-9 0,-14 -9,-5 -19,-9 -28,-14 -36,-56 -26,-142 -14,-208 14,-5 28,-9 42,-14 0,-5 0,-9 0,-14 9,0 19,0 28,0 0,-5 0,-9 0,-14 75,-28 208,42 250,56 60,0 120,0 181,0 125,0 250,0 375,0 54,17 183,106 278,69 0,-5 0,-9 0,-14 9,0 19,0 28,0 5,-9 9,-19 14,-28 9,0 19,0 28,0 0,-5 0,-9 0,-14 28,-5 56,-9 83,-14 0,-5 0,-9 0,-14 9,0 19,0 28,0 0,-5 0,-9 0,-14 19,-5 37,-9 56,-14 0,-5 0,-9 0,-14 37,-5 74,-9 111,-14 0,-5 0,-9 0,-14 28,0 56,0 83,0 0,5 0,9 0,14 46,0 93,0 139,0 0,5 0,9 0,14 60,-5 120,-9 181,-14 0,-5 0,-9 0,-14 9,0 19,0 28,0 0,-5 0,-9 0,-14 28,-9 56,-19 83,-28 0,-5 0,-9 0,-14 93,-9 185,-19 278,-28 0,-5 0,-9 0,-14 14,0 28,0 42,0 0,-5 0,-9 0,-14 9,0 19,0 28,0 0,-5 0,-9 0,-14 19,0 37,0 56,0 0,-5 0,-9 0,-14 9,0 19,0 28,0 0,-5 0,-9 0,-14 32,-5 65,-9 97,-14 0,-5 0,-9 0,-14 14,0 28,0 42,0 0,-5 0,-9 0,-14 79,-5 157,-9 236,-14 0,-5 0,-9 0,-14 23,0 46,0 69,0 0,-5 0,-9 0,-14 23,0 46,0 69,0 0,-5 0,-9 0,-14 65,0 130,0 194,0 0,-5 0,-9 0,-14 32,-5 65,-9 97,-14 0,-5 0,-9 0,-14 9,0 19,0 28,0 0,-5 0,-9 0,-14 46,-5 93,-9 139,-14 0,-5 0,-9 0,-14 65,0 130,0 194,0 0,-5 0,-9 0,-14 23,0 46,0 69,0 0,-5 0,-9 0,-14 23,0 46,0 69,0 0,-5 0,-9 0,-14 23,0 46,0 69,0 0,-5 0,-9 0,-14 93,0 185,0 278,0 0,-5 0,-9 0,-14 46,0 93,0 139,0 0,-5 0,-9 0,-14 56,-5 111,-9 167,-14 0,-5 0,-9 0,-14 67,-20 170,14 208,28 42,9 83,19 125,28 0,5 0,9 0,14 19,5 37,9 56,14 0,5 0,9 0,14 14,0 28,0 42,0 0,5 0,9 0,14 23,0 46,0 69,0 0,5 0,9 0,14 19,5 37,9 56,14 0,5 0,9 0,14 14,0 28,0 42,0 0,5 0,9 0,14 76,25 202,-27 250,-42 74,0 148,0 222,0 0,-5 0,-9 0,-14 5,0 9,0 14,0 0,5 0,9 0,14 19,4 -5,-9 14,-14 32,0 65,0 97,0 0,5 0,9 0,14 19,0 37,0 56,0 23,0 46,0 69,0 0,-5 0,-9 0,-14 88,0 176,0 264,0 60,0 120,0 181,0 0,-5 0,-9 0,-14 14,0 28,0 42,0 0,-5 0,-9 0,-14 37,-5 74,-9 111,-14 0,-5 0,-9 0,-14 37,0 74,0 111,0 0,5 0,9 0,14 57,17 229,-13 264,-28 0,-5 0,-9 0,-14 19,-5 37,-9 56,-14 0,-5 0,-9 0,-14 9,0 19,0 28,0 0,-5 0,-9 0,-14 9,0 19,0 28,0 0,-5 0,-9 0,-14 19,0 37,0 56,0 5,-9 9,-19 14,-28 14,0 28,0 42,0 0,-5 0,-9 0,-14 9,0 19,0 28,0 0,-5 0,-9 0,-14 116,-28 231,-56 347,-83 5,-9 9,-19 14,-28 28,-5 56,-9 83,-14 0,-5 0,-9 0,-14 23,-5 46,-9 69,-14 0,-5 0,-9 0,-14 9,0 19,0 28,0 0,-5 0,-9 0,-14 28,-5 56,-9 83,-14 0,-5 0,-9 0,-14 9,0 19,0 28,0 0,-5 0,-9 0,-14 23,0 46,0 69,0 0,-5 0,-9 0,-14 51,-9 102,-19 153,-28 0,-5 0,-9 0,-14 14,0 28,0 42,0 0,-5 0,-9 0,-14 23,0 46,0 69,0 0,-5 0,-9 0,-14 9,0 19,0 28,0 0,-5 0,-9 0,-14 9,0 19,0 28,0 5,-9 9,-19 14,-28 28,-5 56,-9 83,-14 0,-5 0,-9 0,-14 14,0 28,0 42,0 0,-5 0,-9 0,-14 9,0 19,0 28,0 0,-5 0,-9 0,-14 19,0 37,0 56,0 0,-5 0,-9 0,-14 19,0 37,0 56,0 0,-5 0,-9 0,-14 32,0 65,0 97,0 0,-5 0,-9 0,-14 14,0 28,0 42,0 5,-9 9,-19 14,-28 42,-5 83,-9 125,-14 0,-5 0,-9 0,-14 56,0 111,0 167,0 0,5 0,9 0,14 65,5 130,9 194,14 0,-5 0,-9 0,-14 23,0 46,0 69,0 0,5 0,9 0,14 42,5 83,9 125,14 50,-73 177,-49 208,-167 43,-10 65,-38 97,-56 19,-5 37,-9 56,-14 0,-5 0,-9 0,-14 14,0 28,0 42,0 5,-9 9,-19 14,-28 9,0 19,0 28,0 0,-5 0,-9 0,-14 14,0 28,0 42,0 0,-5 0,-9 0,-14 14,0 28,0 42,0 0,-5 0,-9 0,-14 14,0 28,0 42,0 0,-5 0,-9 0,-14 28,0 56,0 83,0 0,-5 0,-9 0,-14 14,0 28,0 42,0 0,-5 0,-9 0,-14 14,0 28,0 42,0 0,-5 0,-9 0,-14 14,0 28,0 42,0 0,-5 0,-9 0,-14 14,0 28,0 42,0 5,-9 9,-19 14,-28 23,-5 46,-9 69,-14 0,-5 0,-9 0,-14 106,-14 213,-28 319,-42 0,-5 0,-9 0,-14 14,0 28,0 42,0 0,-5 0,-9 0,-14 19,0 37,0 56,0 0,-5 0,-9 0,-14 23,0 46,0 69,0 0,-5 0,-9 0,-14 23,0 46,0 69,0 0,-5 0,-9 0,-14 69,-5 139,-9 208,-14 0,-5 0,-9 0,-14 9,0 19,0 28,0 0,-5 0,-9 0,-14 14,0 28,0 42,0 0,-5 0,-9 0,-14 9,0 19,0 28,0 0,-5 0,-9 0,-14 28,-5 56,-9 83,-14 0,-5 0,-9 0,-14 79,-5 157,-9 236,-14 0,-5 0,-9 0,-14 28,-5 56,-9 83,-14 0,-5 0,-9 0,-14 9,0 19,0 28,0 0,-5 0,-9 0,-14 14,0 28,0 42,0 0,-5 0,-9 0,-14 93,-5 185,-9 278,-14 0,-5 0,-9 0,-14 157,0 315,0 472,0 101,-30 196,-42 333,-42 97,5 194,9 292,14 32,0 65,0 97,0 85,-25 233,11 319,-14 0,-5 0,-9 0,-14 69,-5 139,-9 208,-14 0,-5 0,-9 0,-14 19,0 37,0 56,0 0,-5 0,-9 0,-14 14,0 28,0 42,0 0,-5 0,-9 0,-14 19,0 37,0 56,0 0,-5 0,-9 0,-14 47,-14 127,6 153,14 96,28 219,-22 250,0 5,0 9,0 14,0 0,-5 0,-9 0,-14 100,-25 237,10 319,-14 148,5 296,9 444,14 0,-5 0,-9 0,-14 14,0 28,0 42,0 5,-9 9,-19 14,-28 9,0 19,0 28,0 0,-5 0,-9 0,-14 44,-24 84,-27 153,-28 24,27 32,12 56,28 9,14 19,28 28,42 9,0 19,0 28,0 5,9 9,19 14,28 19,0 37,0 56,0 0,5 0,9 0,14 88,-5 176,-9 264,-14 0,5 0,9 0,14 23,0 46,0 69,0 0,5 0,9 0,14 19,0 37,0 56,0 0,5 0,9 0,14 14,0 28,0 42,0 0,5 0,9 0,14 14,0 28,0 42,0 0,5 0,9 0,14 93,0 185,0 278,0 116,32 231,65 347,97 93,-5 185,-9 278,-14 142,41 334,42 472,83 116,5 231,9 347,14 0,5 0,9 0,14 46,5 93,9 139,14 0,5 0,9 0,14 37,5 74,9 111,14 0,5 0,9 0,14 14,0 28,0 42,0 0,5 0,9 0,14 19,0 37,0 56,0 0,5 0,9 0,14 28,0 56,0 83,0 0,5 0,9 0,14 37,0 74,0 111,0 0,5 0,9 0,14 32,0 65,0 97,0 0,5 0,9 0,14 106,9 213,19 319,28 0,5 0,9 0,14 14,0 28,0 42,0 0,5 0,9 0,14 19,5 37,9 56,14 0,5 0,9 0,14 14,0 28,0 42,0 0,5 0,9 0,14 9,0 19,0 28,0 0,5 0,9 0,14 14,0 28,0 42,0 0,5 0,9 0,14 14,0 28,0 42,0 0,5 0,9 0,14 14,0 28,0 42,0 0,5 0,9 0,14 14,0 28,0 42,0 0,5 0,9 0,14 60,5 120,9 181,14 79,23 157,46 236,69 37,0 74,0 111,0 0,5 0,9 0,14 46,0 93,0 139,0 0,5 0,9 0,14 28,0 56,0 83,0 0,5 0,9 0,14 23,0 46,0 69,0 0,5 0,9 0,14 56,0 111,0 167,0 0,5 0,9 0,14 42,0 83,0 125,0 0,5 0,9 0,14 14,0 28,0 42,0 0,5 0,9 0,14 14,0 28,0 42,0 0,5 0,9 0,14 14,0 28,0 42,0 0,5 0,9 0,14 37,0 74,0 111,0 0,5 0,9 0,14 19,0 37,0 56,0 0,5 0,9 0,14 23,0 46,0 69,0 0,5 0,9 0,14 97,5 194,9 292,14 5,9 9,19 14,28 9,0 19,0 28,0 0,5 0,9 0,14 9,0 19,0 28,0 0,5 0,9 0,14 14,0 28,0 42,0 0,5 0,9 0,14 14,0 28,0 42,0 0,5 0,9 0,14 32,0 65,0 97,0 0,5 0,9 0,14 32,0 65,0 97,0 0,5 0,9 0,14 28,0 56,0 83,0 0,5 0,9 0,14 32,0 65,0 97,0 0,5 0,9 0,14 19,0 37,0 56,0 0,5 0,9 0,14 42,0 83,0 125,0 214,64 492,74 708,139 83,5 167,9 250,14 131,38 313,30 444,69 28,0 56,0 83,0 0,5 0,9 0,14 14,0 28,0 42,0 0,5 0,9 0,14 28,0 56,0 83,0 0,5 0,9 0,14 28,0 56,0 83,0 0,5 0,9 0,14 56,0 111,0 167,0 121,35 282,35 403,69 135,39 282,-71 417,-28 0,5 0,9 0,14 14,0 28,0 42,0 0,5 0,9 0,14 19,0 37,0 56,0 0,5 0,9 0,14 9,0 19,0 28,0 0,5 0,9 0,14 28,5 56,9 83,14 0,5 0,9 0,14 9,0 19,0 28,0 0,5 0,9 0,14 56,0 111,0 167,0 0,5 0,9 0,14 83,0 167,0 250,0 0,5 0,9 0,14 32,0 65,0 97,0 0,5 0,9 0,14 19,0 37,0 56,0 0,5 0,9 0,14 19,0 37,0 56,0 0,5 0,9 0,14 76,23 165,-15 208,-28 32,0 65,0 97,0 100,-28 265,-14 389,-14 51,0 102,0 153,0 0,5 0,9 0,14 14,-5 28,-9 42,-14 0,5 0,9 0,14 56,0 111,0 167,0 0,-5 0,-9 0,-14 83,0 167,0 250,0 85,24 233,-11 319,14 118,34 269,35 389,69 37,0 74,0 111,0 0,5 0,9 0,14 51,0 102,0 153,0 0,5 0,9 0,14 69,0 139,0 208,0 0,5 0,9 0,14 120,5 241,9 361,14 0,5 0,9 0,14 28,0 56,0 83,0 0,5 0,9 0,14 23,0 46,0 69,0 0,5 0,9 0,14 42,0 83,0 125,0 0,5 0,9 0,14 56,0 111,0 167,0 0,5 0,9 0,14 42,0 83,0 125,0 0,5 0,9 0,14 37,0 74,0 111,0 0,5 0,9 0,14 51,-5 102,-9 153,-14 0,5 0,9 0,14 19,0 37,0 56,0 0,5 0,9 0,14 23,0 46,0 69,0 0,5 0,9 0,14 23,0 46,0 69,0 0,5 0,9 0,14 125,0 250,0 375,0 311,0 626,-1 903,-28 20,-2 -5,10 14,14 93,5 185,9 278,14 51,-15 267,-53 347,-28 39,12 168,92 250,56 5,-9 9,-19 14,-28 9,0 19,0 28,0 0,-5 0,-9 0,-14 79,-28 157,-56 236,-83 93,0 185,0 278,0 0,-5 0,-9 0,-14 23,0 46,0 69,0 0,-5 0,-9 0,-14 32,0 65,0 97,0 0,-5 0,-9 0,-14 83,0 167,0 250,0 0,-5 0,-9 0,-14 65,0 130,0 194,0 0,-5 0,-9 0,-14 148,0 296,0 444,0 0,5 0,9 0,14 23,0 46,0 69,0 0,-5 0,-9 0,-14 88,0 176,0 264,0 139,0 278,0 417,0 51,5 102,9 153,14 0,-5 0,-9 0,-14 23,0 46,0 69,0 0,-5 0,-9 0,-14 14,0 28,0 42,0 0,-5 0,-9 0,-14 45,-14 165,3 194,14 0,5 0,9 0,14 88,5 176,9 264,14 0,-5 0,-9 0,-14 83,0 167,0 250,0 245,0 491,0 736,0 127,-21 360,-54 500,-14 171,0 343,0 514,0 111,5 222,9 333,14 31,-5 102,-28 153,-14 0,5 0,9 0,14 176,0 352,0 528,0 143,-24 288,-55 431,-14 32,0 65,0 97,0 0,5 0,9 0,14 65,19 342,0 389,-14 208,5 417,9 625,14 0,5 0,9 0,14 46,0 93,0 139,0 0,5 0,9 0,14 23,0 46,0 69,0 0,5 0,9 0,14 28,0 56,0 83,0 0,5 0,9 0,14 75,22 197,-5 264,14 65,0 130,0 194,0 0,5 0,9 0,14 139,0 278,0 417,0 0,5 0,9 0,14 37,0 74,0 111,0 0,5 0,9 0,14 37,0 74,0 111,0 0,5 0,9 0,14 19,0 37,0 56,0 0,5 0,9 0,14 28,0 56,0 83,0 0,5 0,9 0,14 153,0 306,0 458,0 0,5 0,9 0,14 42,0 83,0 125,0 0,5 0,9 0,14 28,0 56,0 83,0 0,5 0,9 0,14 23,0 46,0 69,0 0,5 0,9 0,14 79,0 157,0 236,0 0,5 0,9 0,14 60,0 120,0 181,0 69,20 167,35 236,56 93,9 185,19 278,28 0,5 0,9 0,14 23,0 46,0 69,0 0,5 0,9 0,14 111,0 222,0 333,0 0,5 0,9 0,14 32,0 65,0 97,0 0,5 0,9 0,14 19,0 37,0 56,0 0,5 0,9 0,14 14,0 28,0 42,0 0,5 0,9 0,14 32,5 65,9 97,14 0,5 0,9 0,14 9,0 19,0 28,0 0,5 0,9 0,14 14,0 28,0 42,0 0,5 0,9 0,14 9,0 19,0 28,0 0,5 0,9 0,14 9,0 19,0 28,0 5,9 9,19 14,28 23,0 46,0 69,0 0,5 0,9 0,14 32,0 65,0 97,0 0,-5 0,-9 0,-14 51,-5 102,-9 153,-14 0,5 0,9 0,14 32,0 65,0 97,0 0,5 0,9 0,14 14,0 28,0 42,0 0,5 0,9 0,14 9,0 19,0 28,0 0,5 0,9 0,14 14,0 28,0 42,0 0,5 0,9 0,14 9,0 19,0 28,0 0,5 0,9 0,14 28,5 56,9 83,14 0,5 0,9 0,14 14,0 28,0 42,0 26,10 60,42 111,28 0,-5 0,-9 0,-14 19,0 37,0 56,0 0,-5 0,-9 0,-14 14,0 28,0 42,0 0,-5 0,-9 0,-14 14,0 28,0 42,0 0,-5 0,-9 0,-14 60,-19 359,1 403,14 106,5 213,9 319,14 0,5 0,9 0,14 28,0 56,0 83,0 0,5 0,9 0,14 23,0 46,0 69,0 0,5 0,9 0,14 28,0 56,0 83,0 0,5 0,9 0,14 19,0 37,0 56,0 0,5 0,9 0,14 23,0 46,0 69,0 0,5 0,9 0,14 56,9 111,19 167,28 0,5 0,9 0,14 14,0 28,0 42,0 0,5 0,9 0,14 14,0 28,0 42,0 0,5 0,9 0,14 19,0 37,0 56,0 0,5 0,9 0,14 14,0 28,0 42,0 0,5 0,9 0,14 79,0 157,0 236,0 0,5 0,9 0,14 32,0 65,0 97,0 0,5 0,9 0,14 28,0 56,0 83,0 0,5 0,9 0,14 28,0 56,0 83,0 0,5 0,9 0,14 23,0 46,0 69,0 0,5 0,9 0,14 32,0 65,0 97,0 0,5 0,9 0,14 51,23 80,9 97,69 5,0 9,0 14,0 0,32 0,65 0,97 -22,18 -29,40 -56,56 -21,20 -87,43 -139,28 0,-5 0,-9 0,-14 -19,0 -37,0 -56,0 0,-5 0,-9 0,-14 -34,-15 -107,-49 -167,-28 0,5 0,9 0,14 -28,9 -56,19 -83,28 0,5 0,9 0,14 -9,0 -19,0 -28,0 0,5 0,9 0,14 -19,0 -37,0 -56,0 0,5 0,9 0,14 -14,0 -28,0 -42,0 0,5 0,9 0,14 -9,0 -19,0 -28,0 0,5 0,9 0,14 -37,5 -74,9 -111,14 0,5 0,9 0,14 -88,5 -176,9 -264,14 0,5 0,9 0,14 -9,0 -19,0 -28,0 -9,14 -19,28 -28,42 -9,0 -19,0 -28,0 -36,26 -23,53 -83,69 z"
             class="fil0"
             inkscape:connector-curvature="0"
             style="fill:#ae1b0a;fill-opacity:1;fill-rule:nonzero" />
        </g>
        <g
           id="_163744104"
           style="fill:#ae1b0a;fill-opacity:1">
          <path
             id="path4317"
             d="m 19222,8125 c 11,47 35,60 83,69 0,9 0,19 0,28 51,46 102,93 153,139 9,14 19,28 28,42 9,0 19,0 28,0 46,51 93,102 139,153 0,14 0,28 0,42 9,5 19,9 28,14 0,9 0,19 0,28 9,5 19,9 28,14 0,9 0,19 0,28 5,0 9,0 14,0 0,9 0,19 0,28 5,0 9,0 14,0 0,14 0,28 0,42 5,0 9,0 14,0 0,9 0,19 0,28 5,0 9,0 14,0 0,9 0,19 0,28 42,37 83,74 125,111 0,9 0,19 0,28 42,37 83,74 125,111 5,14 9,28 14,42 9,0 19,0 28,0 9,19 19,37 28,56 42,33 65,16 83,83 9,0 19,0 28,0 5,14 9,28 14,42 23,19 46,37 69,56 0,14 0,28 0,42 9,5 19,9 28,14 0,9 0,19 0,28 9,5 19,9 28,14 5,19 9,37 14,56 14,9 28,19 42,28 0,9 0,19 0,28 5,0 9,0 14,0 5,65 9,130 14,194 5,0 9,0 14,0 -5,120 -9,241 -14,361 5,0 9,0 14,0 0,14 0,28 0,42 5,0 9,0 14,0 0,14 0,28 0,42 5,0 9,0 14,0 0,19 0,37 0,56 5,0 9,0 14,0 0,37 0,74 0,111 5,0 9,0 14,0 0,37 0,74 0,111 5,0 9,0 14,0 0,28 0,56 0,83 5,0 9,0 14,0 0,37 0,74 0,111 5,0 9,0 14,0 0,106 0,213 0,319 5,0 9,0 14,0 5,28 9,56 14,83 9,5 19,9 28,14 0,9 0,19 0,28 9,5 19,9 28,14 5,19 9,37 14,56 5,0 9,0 14,0 5,9 9,19 14,28 9,0 19,0 28,0 5,9 9,19 14,28 53,50 54,33 56,139 -5,0 -9,0 -14,0 0,14 0,28 0,42 -5,0 -9,0 -14,0 0,9 0,19 0,28 -5,0 -9,0 -14,0 0,23 0,46 0,69 -5,0 -9,0 -14,0 -26,90 38,189 56,236 0,23 0,46 0,69 5,0 9,0 14,0 0,69 0,139 0,208 5,0 9,0 14,0 0,14 0,28 0,42 5,0 9,0 14,0 0,9 0,19 0,28 5,0 9,0 14,0 0,9 0,19 0,28 9,5 19,9 28,14 5,19 9,37 14,56 9,5 19,9 28,14 9,28 19,56 28,83 9,5 19,9 28,14 0,9 0,19 0,28 5,0 9,0 14,0 0,9 0,19 0,28 5,0 9,0 14,0 14,74 28,148 42,222 9,5 19,9 28,14 0,9 0,19 0,28 5,0 9,0 14,0 0,14 0,28 0,42 5,0 9,0 14,0 9,14 19,28 28,42 18,12 56,10 69,28 0,9 0,19 0,28 5,0 9,0 14,0 30,64 -9,158 14,236 5,0 9,0 14,0 0,23 0,46 0,69 5,0 9,0 14,0 0,14 0,28 0,42 5,0 9,0 14,0 0,46 0,93 0,139 19,56 37,111 56,167 9,0 19,0 28,0 0,9 0,19 0,28 70,40 149,157 167,250 61,17 112,110 83,208 -5,0 -9,0 -14,0 0,23 0,46 0,69 -5,0 -9,0 -14,0 0,23 0,46 0,69 -5,0 -9,0 -14,0 0,9 0,19 0,28 -5,0 -9,0 -14,0 0,46 0,93 0,139 5,0 9,0 14,0 0,14 0,28 0,42 5,0 9,0 14,0 16,41 59,216 42,278 -5,0 -9,0 -14,0 0,23 0,46 0,69 -5,0 -9,0 -14,0 0,14 0,28 0,42 -5,0 -9,0 -14,0 0,14 0,28 0,42 -5,0 -9,0 -14,0 0,14 0,28 0,42 -5,0 -9,0 -14,0 -9,28 -19,56 -28,83 -5,0 -9,0 -14,0 0,9 0,19 0,28 -5,0 -9,0 -14,0 0,9 0,19 0,28 -5,0 -9,0 -14,0 0,9 0,19 0,28 -5,0 -9,0 -14,0 0,14 0,28 0,42 -5,0 -9,0 -14,0 0,9 0,19 0,28 -5,0 -9,0 -14,0 -5,102 -9,204 -14,306 -5,0 -9,0 -14,0 0,65 0,130 0,194 37,88 74,176 111,264 24,77 -40,167 -28,222 5,0 9,0 14,0 0,32 0,65 0,97 5,0 9,0 14,0 9,28 19,56 28,83 5,0 9,0 14,0 0,14 0,28 0,42 5,0 9,0 14,0 0,46 0,93 0,139 23,79 46,157 69,236 0,42 0,83 0,125 5,0 9,0 14,0 0,28 0,56 0,83 9,5 19,9 28,14 0,9 0,19 0,28 9,5 19,9 28,14 31,33 39,46 42,111 -44,37 -84,189 -56,292 5,0 9,0 14,0 0,69 0,139 0,208 -5,0 -9,0 -14,0 0,37 0,74 0,111 -5,0 -9,0 -14,0 0,32 0,65 0,97 -5,0 -9,0 -14,0 0,83 0,167 0,250 -5,0 -9,0 -14,0 0,14 0,28 0,42 -5,0 -9,0 -14,0 0,23 0,46 0,69 -5,0 -9,0 -14,0 -5,111 -9,222 -14,333 -5,0 -9,0 -14,0 -5,28 -9,56 -14,83 -5,0 -9,0 -14,0 0,9 0,19 0,28 -5,0 -9,0 -14,0 0,14 0,28 0,42 -5,0 -9,0 -14,0 -5,56 -9,111 -14,167 -37,124 -55,262 -14,403 0,28 0,56 0,83 5,0 9,0 14,0 0,32 0,65 0,97 5,0 9,0 14,0 0,9 0,19 0,28 5,0 9,0 14,0 0,19 0,37 0,56 5,0 9,0 14,0 0,23 0,46 0,69 9,5 19,9 28,14 5,19 9,37 14,56 9,5 19,9 28,14 0,9 0,19 0,28 14,9 28,19 42,28 32,48 41,187 42,264 -5,83 -9,167 -14,250 -14,44 -82,147 -56,222 5,0 9,0 14,0 9,28 19,56 28,83 5,0 9,0 14,0 0,19 0,37 0,56 5,0 9,0 14,0 -5,176 -9,352 -14,528 24,79 67,167 69,264 2,78 7,191 -14,250 -5,0 -9,0 -14,0 0,14 0,28 0,42 -5,0 -9,0 -14,0 0,19 0,37 0,56 -5,0 -9,0 -14,0 0,14 0,28 0,42 -5,0 -9,0 -14,0 0,56 0,111 0,167 5,0 9,0 14,0 0,9 0,19 0,28 5,0 9,0 14,0 0,14 0,28 0,42 5,0 9,0 14,0 0,9 0,19 0,28 5,0 9,0 14,0 0,19 0,37 0,56 5,0 9,0 14,0 -5,120 -9,241 -14,361 5,0 9,0 14,0 0,19 0,37 0,56 5,0 9,0 14,0 0,9 0,19 0,28 5,0 9,0 14,0 5,28 9,56 14,83 5,0 9,0 14,0 0,9 0,19 0,28 5,0 9,0 14,0 5,32 9,65 14,97 5,0 9,0 14,0 5,19 9,37 14,56 5,0 9,0 14,0 9,42 19,83 28,125 9,5 19,9 28,14 0,14 0,28 0,42 5,0 9,0 14,0 0,23 0,46 0,69 5,0 9,0 14,0 0,32 0,65 0,97 5,0 9,0 14,0 0,19 0,37 0,56 5,0 9,0 14,0 0,19 0,37 0,56 5,0 9,0 14,0 0,19 0,37 0,56 5,0 9,0 14,0 0,9 0,19 0,28 5,0 9,0 14,0 0,14 0,28 0,42 5,0 9,0 14,0 0,9 0,19 0,28 5,0 9,0 14,0 0,14 0,28 0,42 5,0 9,0 14,0 0,148 0,296 0,444 -5,0 -9,0 -14,0 0,19 0,37 0,56 -5,0 -9,0 -14,0 0,14 0,28 0,42 -5,0 -9,0 -14,0 0,19 0,37 0,56 -5,0 -9,0 -14,0 0,19 0,37 0,56 -5,0 -9,0 -14,0 0,19 0,37 0,56 -5,0 -9,0 -14,0 0,14 0,28 0,42 -5,0 -9,0 -14,0 0,14 0,28 0,42 -5,0 -9,0 -14,0 0,23 0,46 0,69 -5,0 -9,0 -14,0 0,14 0,28 0,42 -5,0 -9,0 -14,0 0,32 0,65 0,97 -5,0 -9,0 -14,0 0,9 0,19 0,28 -5,0 -9,0 -14,0 -5,37 -9,74 -14,111 -5,0 -9,0 -14,0 0,9 0,19 0,28 -5,0 -9,0 -14,0 -5,28 -9,56 -14,83 -5,0 -9,0 -14,0 0,9 0,19 0,28 -5,0 -9,0 -14,0 -5,28 -9,56 -14,83 -5,0 -9,0 -14,0 -5,19 -9,37 -14,56 -5,0 -9,0 -14,0 0,14 0,28 0,42 -5,0 -9,0 -14,0 0,32 0,65 0,97 -5,0 -9,0 -14,0 0,42 0,83 0,125 -5,0 -9,0 -14,0 5,199 9,398 14,597 11,38 46,134 28,194 -5,0 -9,0 -14,0 0,23 0,46 0,69 -5,0 -9,0 -14,0 0,9 0,19 0,28 -5,0 -9,0 -14,0 0,14 0,28 0,42 -5,0 -9,0 -14,0 -5,19 -9,37 -14,56 -5,0 -9,0 -14,0 0,46 0,93 0,139 -5,0 -9,0 -14,0 0,23 0,46 0,69 -5,0 -9,0 -14,0 0,23 0,46 0,69 -5,0 -9,0 -14,0 0,19 0,37 0,56 -5,0 -9,0 -14,0 0,14 0,28 0,42 -5,0 -9,0 -14,0 0,19 0,37 0,56 -5,0 -9,0 -14,0 -5,37 -9,74 -14,111 -5,0 -9,0 -14,0 0,9 0,19 0,28 -5,0 -9,0 -14,0 0,14 0,28 0,42 -5,0 -9,0 -14,0 0,23 0,46 0,69 -5,0 -9,0 -14,0 0,9 0,19 0,28 -5,0 -9,0 -14,0 0,19 0,37 0,56 -5,0 -9,0 -14,0 0,14 0,28 0,42 -5,0 -9,0 -14,0 0,14 0,28 0,42 -5,0 -9,0 -14,0 0,37 0,74 0,111 -5,0 -9,0 -14,0 0,19 0,37 0,56 -5,0 -9,0 -14,0 0,23 0,46 0,69 -5,0 -9,0 -14,0 0,28 0,56 0,83 -5,0 -9,0 -14,0 0,83 0,167 0,250 -13,46 -49,132 -28,208 9,32 44,158 28,208 -5,0 -9,0 -14,0 -5,23 -9,46 -14,69 -19,14 -37,28 -56,42 -5,23 -9,46 -14,69 -5,0 -9,0 -14,0 0,9 0,19 0,28 -5,0 -9,0 -14,0 0,14 0,28 0,42 -5,0 -9,0 -14,0 9,97 19,194 28,292 -3,55 -29,97 -42,139 -24,82 13,238 28,292 -5,167 -9,333 -14,500 5,0 9,0 14,0 5,74 9,148 14,222 0,51 0,102 0,153 5,0 9,0 14,0 0,74 0,148 0,222 -5,0 -9,0 -14,0 -20,70 0,269 14,319 0,60 0,120 0,181 5,0 9,0 14,0 5,37 9,74 14,111 5,0 9,0 14,0 0,9 0,19 0,28 5,0 9,0 14,0 0,14 0,28 0,42 5,0 9,0 14,0 0,9 0,19 0,28 5,0 9,0 14,0 0,28 0,56 0,83 0,42 0,83 0,125 -19,59 -90,143 -56,250 5,0 9,0 14,0 0,14 0,28 0,42 5,0 9,0 14,0 0,9 0,19 0,28 5,0 9,0 14,0 9,74 19,148 28,222 5,0 9,0 14,0 0,19 0,37 0,56 5,0 9,0 14,0 0,14 0,28 0,42 5,0 9,0 14,0 0,14 0,28 0,42 5,0 9,0 14,0 0,19 0,37 0,56 5,0 9,0 14,0 0,23 0,46 0,69 5,0 9,0 14,0 5,88 9,176 14,264 5,0 9,0 14,0 0,28 0,56 0,83 5,0 9,0 14,0 0,37 0,74 0,111 5,0 9,0 14,0 5,32 9,65 14,97 5,0 9,0 14,0 0,14 0,28 0,42 5,0 9,0 14,0 0,14 0,28 0,42 5,0 9,0 14,0 0,28 0,56 0,83 0,5 0,9 0,14 5,0 9,0 14,0 0,32 0,65 0,97 -5,0 -9,0 -14,0 0,74 0,148 0,222 5,0 9,0 14,0 0,23 0,46 0,69 5,0 9,0 14,0 0,23 0,46 0,69 5,0 9,0 14,0 0,56 0,111 0,167 0,0 17,-2 14,28 0,0 -18,6 -14,28 5,0 9,0 14,0 0,60 0,120 0,181 5,0 9,0 14,0 0,51 0,102 0,153 32,113 14,192 14,333 0,60 0,120 0,181 -5,0 -9,0 -14,0 0,134 0,269 0,403 -5,0 -9,0 -14,0 28,287 56,574 83,861 5,0 9,0 14,0 5,79 9,157 14,236 -5,0 -9,0 -14,0 -18,64 1,302 14,347 -5,102 -9,204 -14,306 5,0 9,0 14,0 0,32 0,65 0,97 5,0 9,0 14,0 0,14 0,28 0,42 5,0 9,0 14,0 0,19 0,37 0,56 5,0 9,0 14,0 23,77 -11,321 -28,375 -5,0 -9,0 -14,0 -25,85 12,238 28,292 0,46 0,93 0,139 5,0 9,0 14,0 21,75 -12,228 -28,278 0,19 0,37 0,56 -5,0 -9,0 -14,0 0,144 0,287 0,431 -5,0 -9,0 -14,0 0,42 0,83 0,125 -5,0 -9,0 -14,0 0,51 0,102 0,153 -5,0 -9,0 -14,0 0,56 0,111 0,167 5,0 9,0 14,0 5,88 9,176 14,264 -9,181 -19,361 -28,542 -5,0 -9,0 -14,0 0,23 0,46 0,69 -5,0 -9,0 -14,0 0,23 0,46 0,69 -5,0 -9,0 -14,0 0,37 0,74 0,111 -5,0 -9,0 -14,0 0,37 0,74 0,111 -5,0 -9,0 -14,0 0,32 0,65 0,97 -5,0 -9,0 -14,0 0,125 0,250 0,375 -5,0 -9,0 -14,0 0,69 0,139 0,208 0,194 12,374 56,528 -5,120 -9,241 -14,361 5,88 9,176 14,264 -5,0 -9,0 -14,0 0,56 0,111 0,167 -5,0 -9,0 -14,0 0,46 0,93 0,139 -5,0 -9,0 -14,0 0,14 0,28 0,42 -5,0 -9,0 -14,0 0,14 0,28 0,42 -5,0 -9,0 -14,0 0,19 0,37 0,56 -5,0 -9,0 -14,0 0,23 0,46 0,69 -5,0 -9,0 -14,0 0,32 0,65 0,97 -5,0 -9,0 -14,0 5,204 9,407 14,611 -35,123 -34,279 -69,403 -5,65 -9,130 -14,194 -5,0 -9,0 -14,0 0,19 0,37 0,56 -5,0 -9,0 -14,0 -5,32 -9,65 -14,97 -5,0 -9,0 -14,0 0,14 0,28 0,42 -5,0 -9,0 -14,0 -5,32 -9,65 -14,97 -5,0 -9,0 -14,0 0,9 0,19 0,28 -5,0 -9,0 -14,0 0,23 0,46 0,69 -5,0 -9,0 -14,0 0,9 0,19 0,28 -5,0 -9,0 -14,0 -19,51 -37,102 -56,153 -14,88 -28,176 -42,264 -5,0 -9,0 -14,0 -5,42 -9,83 -14,125 -5,0 -9,0 -14,0 0,9 0,19 0,28 -5,0 -9,0 -14,0 0,19 0,37 0,56 -5,0 -9,0 -14,0 0,14 0,28 0,42 -5,0 -9,0 -14,0 -5,32 -9,65 -14,97 -5,0 -9,0 -14,0 0,19 0,37 0,56 -5,0 -9,0 -14,0 0,9 0,19 0,28 -5,0 -9,0 -14,0 -5,37 -9,74 -14,111 -5,0 -9,0 -14,0 0,9 0,19 0,28 -9,5 -19,9 -28,14 0,14 0,28 0,42 -5,0 -9,0 -14,0 0,14 0,28 0,42 -5,0 -9,0 -14,0 0,14 0,28 0,42 -5,0 -9,0 -14,0 0,14 0,28 0,42 -5,0 -9,0 -14,0 0,14 0,28 0,42 -5,0 -9,0 -14,0 0,14 0,28 0,42 -5,0 -9,0 -14,0 0,9 0,19 0,28 -5,0 -9,0 -14,0 -5,32 -9,65 -14,97 -5,0 -9,0 -14,0 0,9 0,19 0,28 -9,5 -19,9 -28,14 0,9 0,19 0,28 -5,0 -9,0 -14,0 -5,28 -9,56 -14,83 -5,0 -9,0 -14,0 -5,19 -9,37 -14,56 -5,0 -9,0 -14,0 0,14 0,28 0,42 -5,0 -9,0 -14,0 0,14 0,28 0,42 -9,5 -19,9 -28,14 -5,14 -9,28 -14,42 -5,0 -9,0 -14,0 -5,23 -9,46 -14,69 -5,0 -9,0 -14,0 -5,19 -9,37 -14,56 -5,0 -9,0 -14,0 0,14 0,28 0,42 -5,0 -9,0 -14,0 0,14 0,28 0,42 -5,0 -9,0 -14,0 0,9 0,19 0,28 -5,0 -9,0 -14,0 0,9 0,19 0,28 -9,5 -19,9 -28,14 -9,28 -19,56 -28,83 -9,5 -19,9 -28,14 0,14 0,28 0,42 -5,0 -9,0 -14,0 0,9 0,19 0,28 -5,0 -9,0 -14,0 0,14 0,28 0,42 -5,0 -9,0 -14,0 0,9 0,19 0,28 -5,0 -9,0 -14,0 0,9 0,19 0,28 -5,0 -9,0 -14,0 0,9 0,19 0,28 -5,0 -9,0 -14,0 -9,28 -19,56 -28,83 -5,0 -9,0 -14,0 -9,42 -19,83 -28,125 -5,0 -9,0 -14,0 0,9 0,19 0,28 -5,0 -9,0 -14,0 -5,32 -9,65 -14,97 -5,0 -9,0 -14,0 0,9 0,19 0,28 -9,5 -19,9 -28,14 -5,28 -9,56 -14,83 -5,0 -9,0 -14,0 -5,19 -9,37 -14,56 -5,0 -9,0 -14,0 -9,42 -19,83 -28,125 -19,14 -37,28 -56,42 -5,19 -9,37 -14,56 -5,0 -9,0 -14,0 -9,28 -19,56 -28,83 -5,0 -9,0 -14,0 0,23 0,46 0,69 -5,0 -9,0 -14,0 0,14 0,28 0,42 -5,0 -9,0 -14,0 0,14 0,28 0,42 -5,0 -9,0 -14,0 0,9 0,19 0,28 -5,0 -9,0 -14,0 0,14 0,28 0,42 -9,5 -19,9 -28,14 -5,28 -9,56 -14,83 -5,0 -9,0 -14,0 0,14 0,28 0,42 -5,0 -9,0 -14,0 0,9 0,19 0,28 -5,0 -9,0 -14,0 -5,32 -9,65 -14,97 -5,0 -9,0 -14,0 -9,28 -19,56 -28,83 -5,0 -9,0 -14,0 -5,28 -9,56 -14,83 -5,0 -9,0 -14,0 0,9 0,19 0,28 -5,0 -9,0 -14,0 0,23 0,46 0,69 -5,0 -9,0 -14,0 0,14 0,28 0,42 -5,0 -9,0 -14,0 0,19 0,37 0,56 -5,0 -9,0 -14,0 0,23 0,46 0,69 -5,0 -9,0 -14,0 -5,19 -9,37 -14,56 -5,0 -9,0 -14,0 0,9 0,19 0,28 -5,0 -9,0 -14,0 0,9 0,19 0,28 -5,0 -9,0 -14,0 0,14 0,28 0,42 -9,5 -19,9 -28,14 0,14 0,28 0,42 -5,0 -9,0 -14,0 0,9 0,19 0,28 -5,0 -9,0 -14,0 -5,23 -9,46 -14,69 -5,0 -9,0 -14,0 -5,37 -9,74 -14,111 -5,0 -9,0 -14,0 0,9 0,19 0,28 -5,0 -9,0 -14,0 0,14 0,28 0,42 -5,0 -9,0 -14,0 0,23 0,46 0,69 -5,0 -9,0 -14,0 0,9 0,19 0,28 -5,0 -9,0 -14,0 0,14 0,28 0,42 -5,0 -9,0 -14,0 0,14 0,28 0,42 -5,0 -9,0 -14,0 0,14 0,28 0,42 -5,0 -9,0 -14,0 0,14 0,28 0,42 -5,0 -9,0 -14,0 -5,19 -9,37 -14,56 -5,0 -9,0 -14,0 0,9 0,19 0,28 -9,5 -19,9 -28,14 0,9 0,19 0,28 -5,0 -9,0 -14,0 -5,28 -9,56 -14,83 -5,0 -9,0 -14,0 0,14 0,28 0,42 -5,0 -9,0 -14,0 0,37 0,74 0,111 -9,74 -19,148 -28,222 -5,0 -9,0 -14,0 0,14 0,28 0,42 -5,0 -9,0 -14,0 -5,19 -9,37 -14,56 -5,0 -9,0 -14,0 -5,37 -9,74 -14,111 -5,0 -9,0 -14,0 0,9 0,19 0,28 -5,0 -9,0 -14,0 0,19 0,37 0,56 -5,0 -9,0 -14,0 0,14 0,28 0,42 -5,0 -9,0 -14,0 0,14 0,28 0,42 -5,0 -9,0 -14,0 0,14 0,28 0,42 -5,0 -9,0 -14,0 0,19 0,37 0,56 -5,0 -9,0 -14,0 0,9 0,19 0,28 -5,0 -9,0 -14,0 0,14 0,28 0,42 -5,0 -9,0 -14,0 0,23 0,46 0,69 -5,0 -9,0 -14,0 0,9 0,19 0,28 -5,0 -9,0 -14,0 0,19 0,37 0,56 -5,0 -9,0 -14,0 0,14 0,28 0,42 -5,0 -9,0 -14,0 0,14 0,28 0,42 -5,0 -9,0 -14,0 0,37 0,74 0,111 -5,0 -9,0 -14,0 0,23 0,46 0,69 -5,0 -9,0 -14,0 0,23 0,46 0,69 -5,0 -9,0 -14,0 0,14 0,28 0,42 -5,0 -9,0 -14,0 0,9 0,19 0,28 -5,0 -9,0 -14,0 0,19 0,37 0,56 -5,0 -9,0 -14,0 0,9 0,19 0,28 -5,0 -9,0 -14,0 -5,37 -9,74 -14,111 -5,0 -9,0 -14,0 -5,74 -9,148 -14,222 -5,0 -9,0 -14,0 -5,19 -9,37 -14,56 -14,9 -28,19 -42,28 0,9 0,19 0,28 -5,0 -9,0 -14,0 0,9 0,19 0,28 -5,0 -9,0 -14,0 0,9 0,19 0,28 -5,0 -9,0 -14,0 -5,19 -9,37 -14,56 -5,0 -9,0 -14,0 0,9 0,19 0,28 -5,0 -9,0 -14,0 0,19 0,37 0,56 -5,0 -9,0 -14,0 -5,19 -9,37 -14,56 -9,5 -19,9 -28,14 0,9 0,19 0,28 -5,0 -9,0 -14,0 0,9 0,19 0,28 -9,5 -19,9 -28,14 0,9 0,19 0,28 -14,9 -28,19 -42,28 0,9 0,19 0,28 -9,5 -19,9 -28,14 -5,19 -9,37 -14,56 -5,0 -9,0 -14,0 0,69 0,139 0,208 -5,0 -9,0 -14,0 0,14 0,28 0,42 -5,0 -9,0 -14,0 0,14 0,28 0,42 -5,0 -9,0 -14,0 0,14 0,28 0,42 -5,0 -9,0 -14,0 -5,42 -9,83 -14,125 -5,0 -9,0 -14,0 -5,19 -9,37 -14,56 -9,5 -19,9 -28,14 -9,28 -19,56 -28,83 -5,0 -9,0 -14,0 5,111 9,222 14,333 -5,0 -9,0 -14,0 0,19 0,37 0,56 -5,0 -9,0 -14,0 0,23 0,46 0,69 -5,0 -9,0 -14,0 0,28 0,56 0,83 -5,0 -9,0 -14,0 0,28 0,56 0,83 -5,0 -9,0 -14,0 0,19 0,37 0,56 -5,0 -9,0 -14,0 0,14 0,28 0,42 -5,0 -9,0 -14,0 0,14 0,28 0,42 -5,0 -9,0 -14,0 0,19 0,37 0,56 -5,0 -9,0 -14,0 0,60 0,120 0,181 -5,0 -9,0 -14,0 -5,32 -9,65 -14,97 -9,5 -19,9 -28,14 -26,39 -17,56 -69,69 -22,21 -82,15 -125,14 -10,-17 -40,-38 -42,-42 -23,-43 -1,-138 0,-208 -60,-56 -120,-111 -181,-167 0,-9 0,-19 0,-28 -5,0 -9,0 -14,0 0,-9 0,-19 0,-28 -5,0 -9,0 -14,0 0,-14 0,-28 0,-42 -5,0 -9,0 -14,0 9,-46 19,-93 28,-139 9,0 19,0 28,0 23,-28 46,-56 69,-83 14,-5 28,-9 42,-14 0,-9 0,-19 0,-28 5,0 9,0 14,0 13,-17 10,-27 28,-42 0,-32 0,-65 0,-97 -5,0 -9,0 -14,0 0,-9 0,-19 0,-28 -9,-5 -19,-9 -28,-14 0,-9 0,-19 0,-28 -19,-14 -37,-28 -56,-42 -32,-37 -65,-74 -97,-111 -14,-9 -28,-19 -42,-28 0,-9 0,-19 0,-28 -14,-9 -28,-19 -42,-28 0,-9 0,-19 0,-28 -5,0 -9,0 -14,0 -16,-30 -34,-133 -14,-167 5,0 9,0 14,0 10,-41 15,-45 56,-56 10,-10 110,-32 139,-14 0,5 0,9 0,14 34,10 22,7 42,28 5,0 9,0 14,0 0,9 0,19 0,28 23,19 46,37 69,56 5,9 9,19 14,28 23,5 46,9 69,14 0,5 0,9 0,14 54,13 113,-52 125,-83 0,-23 0,-46 0,-69 5,0 9,0 14,0 0,-9 0,-19 0,-28 5,0 9,0 14,0 19,-39 27,-83 28,-139 -32,-28 -65,-56 -97,-83 -57,-20 -99,25 -125,42 0,5 0,9 0,14 -23,0 -46,0 -69,0 -25,-27 -27,-12 -56,-28 0,-5 0,-9 0,-14 -9,0 -19,0 -28,0 0,-5 0,-9 0,-14 -9,0 -19,0 -28,0 -9,-14 -19,-28 -28,-42 -9,0 -19,0 -28,0 -18,-14 -38,-65 -42,-97 -22,-24 -31,-116 -14,-167 5,0 9,0 14,0 0,-14 0,-28 0,-42 5,0 9,0 14,0 0,-14 0,-28 0,-42 5,0 9,0 14,0 0,-9 0,-19 0,-28 5,0 9,0 14,0 0,-9 0,-19 0,-28 19,-14 37,-28 56,-42 5,-19 9,-37 14,-56 42,-28 83,-56 125,-83 0,-19 0,-37 0,-56 5,0 9,0 14,0 0,-14 0,-28 0,-42 -5,0 -9,0 -14,0 0,-9 0,-19 0,-28 -14,-9 -28,-19 -42,-28 0,-5 0,-9 0,-14 -51,-34 -76,7 -97,-69 -20,-19 -45,-115 -28,-167 5,0 9,0 14,0 0,-14 0,-28 0,-42 5,0 9,0 14,0 0,-9 0,-19 0,-28 5,0 9,0 14,0 0,-14 0,-28 0,-42 5,0 9,0 14,0 16,-51 -20,-85 -28,-111 0,-60 0,-120 0,-181 5,0 9,0 14,0 9,-51 19,-102 28,-153 5,0 9,0 14,0 50,-149 -15,-387 42,-528 5,0 9,0 14,0 0,-9 0,-19 0,-28 5,0 9,0 14,0 5,-23 9,-46 14,-69 5,0 9,0 14,0 0,-9 0,-19 0,-28 5,0 9,0 14,0 5,-19 9,-37 14,-56 5,0 9,0 14,0 5,-32 9,-65 14,-97 5,0 9,0 14,0 9,-28 19,-56 28,-83 5,0 9,0 14,0 0,-9 0,-19 0,-28 5,0 9,0 14,0 0,-19 0,-37 0,-56 9,-5 19,-9 28,-14 0,-9 0,-19 0,-28 5,0 9,0 14,0 0,-9 0,-19 0,-28 5,0 9,0 14,0 0,-9 0,-19 0,-28 5,0 9,0 14,0 0,-9 0,-19 0,-28 14,-9 28,-19 42,-28 5,-19 9,-37 14,-56 5,0 9,0 14,0 0,-23 0,-46 0,-69 5,0 9,0 14,0 0,-9 0,-19 0,-28 5,0 9,0 14,0 0,-28 0,-56 0,-83 5,0 9,0 14,0 9,-28 19,-56 28,-83 23,-19 46,-37 69,-56 0,-9 0,-19 0,-28 9,-5 19,-9 28,-14 5,-23 9,-46 14,-69 5,0 9,0 14,0 0,-14 0,-28 0,-42 5,0 9,0 14,0 0,-9 0,-19 0,-28 5,0 9,0 14,0 16,-21 19,-24 28,-56 9,0 19,0 28,0 12,-61 86,-140 125,-181 14,-9 28,-19 42,-28 14,-79 28,-157 42,-236 23,-19 46,-37 69,-56 0,-9 0,-19 0,-28 9,-5 19,-9 28,-14 0,-9 0,-19 0,-28 9,-5 19,-9 28,-14 5,-14 9,-28 14,-42 5,0 9,0 14,0 5,-19 9,-37 14,-56 5,0 9,0 14,0 9,-28 19,-56 28,-83 5,0 9,0 14,0 5,-32 9,-65 14,-97 5,0 9,0 14,0 0,-14 0,-28 0,-42 5,0 9,0 14,0 0,-14 0,-28 0,-42 5,0 9,0 14,0 0,-19 0,-37 0,-56 5,0 9,0 14,0 0,-9 0,-19 0,-28 9,-5 19,-9 28,-14 0,-9 0,-19 0,-28 9,-5 19,-9 28,-14 0,-9 0,-19 0,-28 5,0 9,0 14,0 0,-9 0,-19 0,-28 5,0 9,0 14,0 0,-9 0,-19 0,-28 5,0 9,0 14,0 0,-9 0,-19 0,-28 9,-5 19,-9 28,-14 0,-9 0,-19 0,-28 32,-28 65,-56 97,-83 18,-28 2,-62 14,-97 5,0 9,0 14,0 0,-14 0,-28 0,-42 5,0 9,0 14,0 0,-28 0,-56 0,-83 5,0 9,0 14,0 0,-14 0,-28 0,-42 5,0 9,0 14,0 5,-19 9,-37 14,-56 5,0 9,0 14,0 0,-9 0,-19 0,-28 5,0 9,0 14,0 0,-14 0,-28 0,-42 5,0 9,0 14,0 9,-28 19,-56 28,-83 5,0 9,0 14,0 5,-19 9,-37 14,-56 14,-9 28,-19 42,-28 0,-9 0,-19 0,-28 9,-5 19,-9 28,-14 5,-23 9,-46 14,-69 5,0 9,0 14,0 0,-9 0,-19 0,-28 9,-5 19,-9 28,-14 9,-28 19,-56 28,-83 23,-19 46,-37 69,-56 19,-29 14,-74 28,-111 5,0 9,0 14,0 0,-51 0,-102 0,-153 14,-42 28,-83 42,-125 5,0 9,0 14,0 0,-9 0,-19 0,-28 5,0 9,0 14,0 5,-56 9,-111 14,-167 5,0 9,0 14,0 0,-23 0,-46 0,-69 5,0 9,0 14,0 0,-14 0,-28 0,-42 5,0 9,0 14,0 0,-14 0,-28 0,-42 5,0 9,0 14,0 0,-14 0,-28 0,-42 5,0 9,0 14,0 5,-56 9,-111 14,-167 5,0 9,0 14,0 5,-19 9,-37 14,-56 9,-5 19,-9 28,-14 5,-19 9,-37 14,-56 5,0 9,0 14,0 5,-19 9,-37 14,-56 5,0 9,0 14,0 5,-32 9,-65 14,-97 9,-5 19,-9 28,-14 0,-9 0,-19 0,-28 5,0 9,0 14,0 29,-50 34,-95 97,-111 7,-37 37,-69 28,-111 -15,-68 -72,-200 -42,-306 5,0 9,0 14,0 0,-23 0,-46 0,-69 5,0 9,0 14,0 0,-9 0,-19 0,-28 5,0 9,0 14,0 0,-14 0,-28 0,-42 5,0 9,0 14,0 0,-51 0,-102 0,-153 5,0 9,0 14,0 10,-29 53,-204 42,-236 -5,0 -9,0 -14,0 -5,-19 -9,-37 -14,-56 -23,-19 -46,-37 -69,-56 0,-51 0,-102 0,-153 52,-46 52,-195 28,-278 -5,0 -9,0 -14,0 -9,-36 20,-103 28,-125 0,-14 0,-28 0,-42 9,-5 19,-9 28,-14 5,-32 9,-65 14,-97 5,0 9,0 14,0 15,-38 47,-146 28,-208 -5,0 -9,0 -14,0 -16,-46 -51,-192 -28,-264 5,0 9,0 14,0 0,-14 0,-28 0,-42 9,-5 19,-9 28,-14 0,-9 0,-19 0,-28 5,0 9,0 14,0 0,-14 0,-28 0,-42 5,0 9,0 14,0 -9,-56 -19,-111 -28,-167 -5,0 -9,0 -14,0 0,-32 0,-65 0,-97 -5,0 -9,0 -14,0 0,-9 0,-19 0,-28 -5,0 -9,0 -14,0 -5,-28 -9,-56 -14,-83 -5,0 -9,0 -14,0 -9,-28 -19,-56 -28,-83 -5,0 -9,0 -14,0 0,-19 0,-37 0,-56 -5,0 -9,0 -14,0 9,-42 19,-83 28,-125 9,-5 19,-9 28,-14 5,-19 9,-37 14,-56 5,0 9,0 14,0 5,-19 9,-37 14,-56 5,0 9,0 14,0 0,-19 0,-37 0,-56 5,0 9,0 14,0 33,-110 -62,-203 -83,-264 -37,-105 53,-222 56,-319 -28,-24 -12,-32 -28,-56 -5,0 -9,0 -14,0 -14,-19 -28,-37 -42,-56 -5,0 -9,0 -14,0 0,-56 0,-111 0,-167 -5,0 -9,0 -14,0 0,-5 0,-9 0,-14 5,0 9,0 14,0 0,-32 0,-65 0,-97 -14,-45 -72,-125 -42,-208 5,0 9,0 14,0 0,-9 0,-19 0,-28 5,0 9,0 14,0 5,-19 9,-37 14,-56 9,-5 19,-9 28,-14 24,-29 26,-58 28,-111 -22,-18 -47,-50 -56,-83 -9,0 -19,0 -28,0 -5,-14 -9,-28 -14,-42 -9,-5 -19,-9 -28,-14 -30,-44 -55,-95 -56,-167 19,-16 21,-25 28,-56 9,0 19,0 28,0 21,-76 54,-34 56,-153 -46,-51 -93,-102 -139,-153 0,-37 0,-74 0,-111 0,-105 2,-200 -28,-278 -20,-51 -106,-176 -69,-278 5,0 9,0 14,0 9,-28 19,-56 28,-83 5,0 9,0 14,0 5,-19 9,-37 14,-56 9,-5 19,-9 28,-14 0,-5 0,-9 0,-14 9,-5 19,-9 28,-14 0,-9 0,-19 0,-28 9,-5 19,-9 28,-14 0,-23 0,-46 0,-69 -57,-52 -38,-122 -69,-194 -5,0 -9,0 -14,0 0,-9 0,-19 0,-28 -5,0 -9,0 -14,0 0,-14 0,-28 0,-42 -5,0 -9,0 -14,0 0,-14 0,-28 0,-42 -19,-14 -37,-28 -56,-42 0,-9 0,-19 0,-28 -5,0 -9,0 -14,0 0,-14 0,-28 0,-42 -5,0 -9,0 -14,0 0,-14 0,-28 0,-42 -5,0 -9,0 -14,0 0,-9 0,-19 0,-28 -5,0 -9,0 -14,0 0,-19 0,-37 0,-56 -5,0 -9,0 -14,0 -5,-28 -9,-56 -14,-83 -5,0 -9,0 -14,0 0,-9 0,-19 0,-28 -5,0 -9,0 -14,0 -5,-28 -9,-56 -14,-83 -5,0 -9,0 -14,0 0,-19 0,-37 0,-56 -5,0 -9,0 -14,0 -5,-79 -9,-157 -14,-236 -5,0 -9,0 -14,0 0,-9 0,-19 0,-28 -5,0 -9,0 -14,0 0,-9 0,-19 0,-28 -9,-5 -19,-9 -28,-14 0,-14 0,-28 0,-42 -5,0 -9,0 -14,0 0,-9 0,-19 0,-28 -5,0 -9,0 -14,0 0,-14 0,-28 0,-42 -5,0 -9,0 -14,0 -37,-113 68,-165 42,-250 -5,0 -9,0 -14,0 0,-14 0,-28 0,-42 -9,-5 -19,-9 -28,-14 0,-9 0,-19 0,-28 -9,-5 -19,-9 -28,-14 -9,-46 -19,-93 -28,-139 -5,0 -9,0 -14,0 0,-9 0,-19 0,-28 -9,-5 -19,-9 -28,-14 -5,-19 -9,-37 -14,-56 -14,-9 -28,-19 -42,-28 -5,-28 -9,-56 -14,-83 -5,0 -9,0 -14,0 5,-139 9,-278 14,-417 -5,0 -9,0 -14,0 0,-19 0,-37 0,-56 -5,0 -9,0 -14,0 0,-14 0,-28 0,-42 -5,0 -9,0 -14,0 -5,-46 -9,-93 -14,-139 -5,0 -9,0 -14,0 0,-14 0,-28 0,-42 -5,0 -9,0 -14,0 0,-9 0,-19 0,-28 -5,0 -9,0 -14,0 0,-14 0,-28 0,-42 -5,0 -9,0 -14,0 5,-56 9,-111 14,-167 -5,0 -9,0 -14,0 0,-9 0,-19 0,-28 -5,0 -9,0 -14,0 0,-14 0,-28 0,-42 -5,0 -9,0 -14,0 0,-14 0,-28 0,-42 -5,0 -9,0 -14,0 0,-9 0,-19 0,-28 -19,-14 -37,-28 -56,-42 -5,-19 -9,-37 -14,-56 -9,-5 -19,-9 -28,-14 -5,-28 -9,-56 -14,-83 -5,0 -9,0 -14,0 0,-56 0,-111 0,-167 5,0 9,0 14,0 5,-88 9,-176 14,-264 -5,0 -9,0 -14,0 0,-19 0,-37 0,-56 -5,0 -9,0 -14,0 0,-9 0,-19 0,-28 -5,0 -9,0 -14,0 0,-14 0,-28 0,-42 -5,0 -9,0 -14,0 -5,-23 -9,-46 -14,-69 -9,-5 -19,-9 -28,-14 -5,-23 -9,-46 -14,-69 -9,-5 -19,-9 -28,-14 0,-9 0,-19 0,-28 -5,0 -9,0 -14,0 0,-9 0,-19 0,-28 -5,0 -9,0 -14,0 -9,-46 -19,-93 -28,-139 -9,-5 -19,-9 -28,-14 -5,-23 -9,-46 -14,-69 -28,-23 -56,-46 -83,-69 0,-9 0,-19 0,-28 -5,0 -9,0 -14,0 -5,-65 -9,-130 -14,-194 -5,0 -9,0 -14,0 0,-14 0,-28 0,-42 -5,0 -9,0 -14,0 -5,-28 -9,-56 -14,-83 -9,-5 -19,-9 -28,-14 -5,-19 -9,-37 -14,-56 -5,0 -9,0 -14,0 -14,-88 -28,-176 -42,-264 -9,-5 -19,-9 -28,-14 -5,-19 -9,-37 -14,-56 -14,-9 -28,-19 -42,-28 0,-9 0,-19 0,-28 -9,-5 -19,-9 -28,-14 0,-9 0,-19 0,-28 -5,0 -9,0 -14,0 0,-9 0,-19 0,-28 -5,0 -9,0 -14,0 0,-9 0,-19 0,-28 -5,0 -9,0 -14,0 0,-9 0,-19 0,-28 -5,0 -9,0 -14,0 0,-9 0,-19 0,-28 -9,-5 -19,-9 -28,-14 0,-9 0,-19 0,-28 -5,0 -9,0 -14,0 -5,-19 -9,-37 -14,-56 -5,0 -9,0 -14,0 -5,-32 -9,-65 -14,-97 -5,0 -9,0 -14,0 0,-19 0,-37 0,-56 -5,0 -9,0 -14,0 -5,-19 -9,-37 -14,-56 -5,0 -9,0 -14,0 0,-19 0,-37 0,-56 -5,0 -9,0 -14,0 0,-9 0,-19 0,-28 -5,0 -9,0 -14,0 0,-9 0,-19 0,-28 -9,-5 -19,-9 -28,-14 -5,-23 -9,-46 -14,-69 -5,0 -9,0 -14,0 -9,-28 -19,-56 -28,-83 -5,0 -9,0 -14,0 0,-9 0,-19 0,-28 -5,0 -9,0 -14,0 -5,-19 -9,-37 -14,-56 -14,-9 -28,-19 -42,-28 0,-9 0,-19 0,-28 -5,0 -9,0 -14,0 0,-19 0,-37 0,-56 -5,0 -9,0 -14,0 0,-14 0,-28 0,-42 -5,0 -9,0 -14,0 0,-14 0,-28 0,-42 -5,0 -9,0 -14,0 0,-32 0,-65 0,-97 -5,0 -9,0 -14,0 0,-9 0,-19 0,-28 -5,0 -9,0 -14,0 0,-28 0,-56 0,-83 -5,0 -9,0 -14,0 0,-9 0,-19 0,-28 -19,-14 -37,-28 -56,-42 0,-14 0,-28 0,-42 -5,0 -9,0 -14,0 0,-9 0,-19 0,-28 -5,0 -9,0 -14,0 0,-9 0,-19 0,-28 -5,0 -9,0 -14,0 0,-9 0,-19 0,-28 -9,-5 -19,-9 -28,-14 0,-14 0,-28 0,-42 -14,-9 -28,-19 -42,-28 0,-9 0,-19 0,-28 -9,-5 -19,-9 -28,-14 0,-5 0,-9 0,-14 -9,-5 -19,-9 -28,-14 0,-9 0,-19 0,-28 -5,0 -9,0 -14,0 -20,-24 -31,-34 -42,-69 -65,-19 -54,-47 -83,-97 -5,0 -9,0 -14,0 0,-9 0,-19 0,-28 -14,-9 -28,-19 -42,-28 0,-9 0,-19 0,-28 -9,-5 -19,-9 -28,-14 0,-9 0,-19 0,-28 -9,-5 -19,-9 -28,-14 -14,-42 -28,-83 -42,-125 -9,-5 -19,-9 -28,-14 0,-9 0,-19 0,-28 -28,-23 -56,-46 -83,-69 0,-9 0,-19 0,-28 -14,-9 -28,-19 -42,-28 0,-9 0,-19 0,-28 -14,-9 -28,-19 -42,-28 0,-9 0,-19 0,-28 -9,-5 -19,-9 -28,-14 0,-9 0,-19 0,-28 -5,0 -9,0 -14,0 0,-14 0,-28 0,-42 -5,0 -9,0 -14,0 0,-9 0,-19 0,-28 -5,0 -9,0 -14,0 0,-23 0,-46 0,-69 -5,0 -9,0 -14,0 0,-19 0,-37 0,-56 -21,-62 -35,-160 -56,-222 0,-19 0,-37 0,-56 -5,0 -9,0 -14,0 -5,-69 -9,-139 -14,-208 -5,0 -9,0 -14,0 0,-23 0,-46 0,-69 -9,-5 -19,-9 -28,-14 -14,-42 -28,-83 -42,-125 -9,0 -19,0 -28,0 -11,-44 -41,-64 -56,-97 -5,-28 -9,-56 -14,-83 -5,0 -9,0 -14,0 0,-19 0,-37 0,-56 -5,0 -9,0 -14,0 0,-19 0,-37 0,-56 -5,0 -9,0 -14,0 0,-42 0,-83 0,-125 -5,0 -9,0 -14,0 0,-9 0,-19 0,-28 -5,0 -9,0 -14,0 -5,-28 -9,-56 -14,-83 -5,0 -9,0 -14,0 0,-9 0,-19 0,-28 -5,0 -9,0 -14,0 -5,-32 -9,-65 -14,-97 -5,0 -9,0 -14,0 0,-14 0,-28 0,-42 -5,0 -9,0 -14,0 0,-9 0,-19 0,-28 -5,0 -9,0 -14,0 0,-19 0,-37 0,-56 -5,0 -9,0 -14,0 0,-14 0,-28 0,-42 -5,0 -9,0 -14,0 0,-9 0,-19 0,-28 -5,0 -9,0 -14,0 0,-14 0,-28 0,-42 -5,0 -9,0 -14,0 0,-14 0,-28 0,-42 -5,0 -9,0 -14,0 0,-14 0,-28 0,-42 -5,0 -9,0 -14,0 -9,-51 -19,-102 -28,-153 -5,0 -9,0 -14,0 -30,-86 13,-212 -14,-306 -5,0 -9,0 -14,0 -5,-83 -9,-167 -14,-250 -5,0 -9,0 -14,0 0,-28 0,-56 0,-83 -17,-51 -67,-161 -42,-250 5,0 9,0 14,0 0,-32 0,-65 0,-97 5,0 9,0 14,0 0,-37 0,-74 0,-111 5,0 9,0 14,0 0,-9 0,-19 0,-28 5,0 9,0 14,0 5,-28 9,-56 14,-83 5,0 9,0 14,0 5,-19 9,-37 14,-56 5,0 9,0 14,0 5,-32 9,-65 14,-97 5,0 9,0 14,0 0,-9 0,-19 0,-28 5,0 9,0 14,0 0,-19 0,-37 0,-56 5,0 9,0 14,0 0,-14 0,-28 0,-42 5,0 9,0 14,0 0,-9 0,-19 0,-28 9,-5 19,-9 28,-14 5,-32 9,-65 14,-97 5,0 9,0 14,0 0,-9 0,-19 0,-28 5,0 9,0 14,0 5,-28 9,-56 14,-83 5,0 9,0 14,0 0,-19 0,-37 0,-56 5,0 9,0 14,0 0,-9 0,-19 0,-28 5,0 9,0 14,0 0,-23 0,-46 0,-69 5,0 9,0 14,0 0,-14 0,-28 0,-42 5,0 9,0 14,0 0,-37 0,-74 0,-111 5,0 9,0 14,0 0,-65 0,-130 0,-194 5,0 9,0 14,0 0,-28 0,-56 0,-83 5,0 9,0 14,0 5,-28 9,-56 14,-83 5,0 9,0 14,0 0,-9 0,-19 0,-28 5,0 9,0 14,0 0,-14 0,-28 0,-42 9,-5 19,-9 28,-14 9,-46 19,-93 28,-139 5,0 9,0 14,0 0,-130 0,-259 0,-389 5,0 9,0 14,0 0,-28 0,-56 0,-83 5,0 9,0 14,0 14,-45 31,-330 14,-389 -5,0 -9,0 -14,0 0,-19 0,-37 0,-56 -5,0 -9,0 -14,0 0,-23 0,-46 0,-69 -5,0 -9,0 -14,0 0,-32 0,-65 0,-97 -1,-4 -18,-4 -14,-28 5,0 9,0 14,0 0,-23 0,-46 0,-69 5,0 9,0 14,0 0,-9 0,-19 0,-28 5,0 9,0 14,0 5,-28 9,-56 14,-83 5,0 9,0 14,0 0,-37 0,-74 0,-111 5,0 9,0 14,0 -5,-46 -9,-93 -14,-139 0,-69 0,-139 0,-208 -5,0 -9,0 -14,0 0,-19 0,-37 0,-56 -5,0 -9,0 -14,0 0,-19 0,-37 0,-56 -5,0 -9,0 -14,0 0,-23 0,-46 0,-69 -5,0 -9,0 -14,0 0,-19 0,-37 0,-56 -5,0 -9,0 -14,0 0,-19 0,-37 0,-56 -5,0 -9,0 -14,0 5,-111 9,-222 14,-333 -5,0 -9,0 -14,0 0,-14 0,-28 0,-42 -5,0 -9,0 -14,0 -5,-19 -9,-37 -14,-56 -5,0 -9,0 -14,0 -5,-46 -9,-93 -14,-139 -5,0 -9,0 -14,0 0,-65 0,-130 0,-194 -5,0 -9,0 -14,0 -23,-72 -29,-214 -14,-306 5,-31 28,-102 14,-153 -25,-88 4,-225 -14,-333 -8,-49 -33,-166 -14,-236 5,0 9,0 14,0 0,-79 0,-157 0,-236 0,-244 -30,-420 -83,-611 5,-153 9,-306 14,-458 -5,0 -9,0 -14,0 0,-74 0,-148 0,-222 -5,0 -9,0 -14,0 5,-116 9,-231 14,-347 0,-74 0,-148 0,-222 -18,-56 -97,-161 -69,-250 5,0 9,0 14,0 0,-14 0,-28 0,-42 5,0 9,0 14,0 0,-14 0,-28 0,-42 5,0 9,0 14,0 0,-19 0,-37 0,-56 5,0 9,0 14,0 -5,-97 -9,-194 -14,-292 5,0 9,0 14,0 0,-28 0,-56 0,-83 5,0 9,0 14,0 0,-37 0,-74 0,-111 5,0 9,0 14,0 0,-23 0,-46 0,-69 5,0 9,0 14,0 0,-23 0,-46 0,-69 12,-38 49,-112 28,-181 -5,0 -9,0 -14,0 0,-14 0,-28 0,-42 -5,0 -9,0 -14,0 -5,-37 -9,-74 -14,-111 -5,0 -9,0 -14,0 0,-37 0,-74 0,-111 -5,0 -9,0 -14,0 0,-19 0,-37 0,-56 -5,0 -9,0 -14,0 0,-23 0,-46 0,-69 -5,0 -9,0 -14,0 -32,-113 75,-183 42,-278 -5,0 -9,0 -14,0 -5,-19 -9,-37 -14,-56 -9,-5 -19,-9 -28,-14 -5,-19 -9,-37 -14,-56 -5,0 -9,0 -14,0 -5,-60 -9,-120 -14,-181 -5,0 -9,0 -14,0 -28,-99 18,-302 42,-361 5,0 9,0 14,0 0,-14 0,-28 0,-42 5,0 9,0 14,0 0,-46 0,-93 0,-139 -1,-58 -17,-88 -28,-125 0,-32 0,-65 0,-97 -5,0 -9,0 -14,0 5,-120 9,-241 14,-361 0,-83 0,-167 0,-250 34,-121 28,-288 28,-444 0,-65 0,-130 0,-194 5,0 9,0 14,0 0,-37 0,-74 0,-111 5,0 9,0 14,0 0,-37 0,-74 0,-111 5,0 9,0 14,0 0,-42 0,-83 0,-125 5,0 9,0 14,0 0,-97 0,-194 0,-292 5,0 9,0 14,0 0,-19 0,-37 0,-56 5,0 9,0 14,0 0,-9 0,-19 0,-28 5,0 9,0 14,0 0,-14 0,-28 0,-42 5,0 9,0 14,0 5,-37 9,-74 14,-111 5,0 9,0 14,0 0,-37 0,-74 0,-111 5,0 9,0 14,0 0,-32 0,-65 0,-97 5,0 9,0 14,0 24,-85 -9,-215 14,-292 0,-23 0,-46 0,-69 5,0 9,0 14,0 0,-9 0,-19 0,-28 9,-5 19,-9 28,-14 0,-9 0,-19 0,-28 5,0 9,0 14,0 0,-9 0,-19 0,-28 5,0 9,0 14,0 0,-14 0,-28 0,-42 5,0 9,0 14,0 0,-37 0,-74 0,-111 9,-69 19,-139 28,-208 5,0 9,0 14,0 0,-14 0,-28 0,-42 5,0 9,0 14,0 0,-14 0,-28 0,-42 9,-5 19,-9 28,-14 0,-9 0,-19 0,-28 14,-9 28,-19 42,-28 0,-9 0,-19 0,-28 23,-19 46,-37 69,-56 9,-28 19,-56 28,-83 5,0 9,0 14,0 0,-9 0,-19 0,-28 5,0 9,0 14,0 19,-57 -24,-96 -28,-139 0,-46 0,-93 0,-139 10,-34 50,-104 28,-167 -5,0 -9,0 -14,0 0,-9 0,-19 0,-28 -5,0 -9,0 -14,0 -28,-55 -52,-133 -56,-208 38,-35 20,-66 83,-83 11,-44 43,-64 56,-97 0,-32 0,-65 0,-97 5,0 9,0 14,0 -5,-46 -9,-93 -14,-139 -5,0 -9,0 -14,0 14,-97 28,-194 42,-292 5,0 9,0 14,0 0,-9 0,-19 0,-28 5,0 9,0 14,0 5,-37 9,-74 14,-111 5,0 9,0 14,0 0,-9 0,-19 0,-28 5,0 9,0 14,0 0,-32 0,-65 0,-97 5,0 9,0 14,0 0,-14 0,-28 0,-42 5,0 9,0 14,0 0,-19 0,-37 0,-56 5,0 9,0 14,0 0,-14 0,-28 0,-42 5,0 9,0 14,0 0,-9 0,-19 0,-28 5,0 9,0 14,0 46,-88 61,-121 42,-236 -22,-8 -94,-17 -111,-28 -42,-46 -83,-93 -125,-139 -5,0 -9,0 -14,0 0,-14 0,-28 0,-42 -5,0 -9,0 -14,0 5,-74 9,-148 14,-222 101,-48 94,-137 236,-139 27,33 35,9 69,28 5,9 9,19 14,28 33,24 60,7 97,0 11,-54 39,-61 56,-97 5,-37 9,-74 14,-111 5,0 9,0 14,0 0,-9 0,-19 0,-28 5,0 9,0 14,0 0,-19 0,-37 0,-56 5,0 9,0 14,0 0,-19 0,-37 0,-56 5,0 9,0 14,0 0,-28 0,-56 0,-83 5,0 9,0 14,0 0,-42 0,-83 0,-125 5,0 9,0 14,0 0,-23 0,-46 0,-69 5,0 9,0 14,0 0,-9 0,-19 0,-28 5,0 9,0 14,0 0,-19 0,-37 0,-56 5,0 9,0 14,0 0,-14 0,-28 0,-42 5,0 9,0 14,0 0,-60 0,-120 0,-181 5,0 9,0 14,0 0,-37 0,-74 0,-111 5,0 9,0 14,0 0,-32 0,-65 0,-97 5,0 9,0 14,0 0,-14 0,-28 0,-42 5,0 9,0 14,0 5,-46 9,-93 14,-139 5,0 9,0 14,0 0,-83 0,-167 0,-250 2,-55 33,-137 14,-208 -5,0 -9,0 -14,0 0,-69 0,-139 0,-208 5,0 9,0 14,0 0,-42 0,-83 0,-125 5,0 9,0 14,0 0,-65 0,-130 0,-194 5,0 9,0 14,0 13,-35 9,-84 28,-111 14,-5 28,-9 42,-14 18,-15 15,-49 28,-69 9,-5 19,-9 28,-14 0,-9 0,-19 0,-28 5,0 9,0 14,0 0,-9 0,-19 0,-28 5,0 9,0 14,0 5,-46 9,-93 14,-139 5,0 9,0 14,0 0,-9 0,-19 0,-28 5,0 9,0 14,0 0,-23 0,-46 0,-69 5,0 9,0 14,0 0,-14 0,-28 0,-42 5,0 9,0 14,0 5,-46 9,-93 14,-139 28,-42 56,-83 83,-125 31,-23 71,-26 97,-56 99,0 174,16 236,56 5,9 9,19 14,28 9,0 19,0 28,0 9,14 19,28 28,42 5,0 9,0 14,0 0,9 0,19 0,28 28,23 56,46 83,69 36,38 24,79 83,97 z"
             class="fil0"
             inkscape:connector-curvature="0"
             style="fill:#ae1b0a;fill-opacity:1;fill-rule:nonzero" />
        </g>
        <g
           id="_163744176"
           style="fill:#ae1b0a;fill-opacity:1">
          <path
             id="path4320"
             d="m 23000,9917 c 0,19 0,37 0,56 -14,0 -28,0 -42,0 0,-5 0,-9 0,-14 -16,-16 -6,0 -14,-28 5,0 9,0 14,0 0,-5 0,-9 0,-14 14,0 28,0 42,0 z"
             class="fil0"
             inkscape:connector-curvature="0"
             style="fill:#ae1b0a;fill-opacity:1;fill-rule:nonzero" />
        </g>
        <g
           id="_163744056"
           style="fill:#ae1b0a;fill-opacity:1">
          <path
             id="path4323"
             d="m 22389,10611 c 14,5 28,9 42,14 0,5 0,9 0,14 -14,0 -28,0 -42,0 0,-9 0,-19 0,-28 z"
             class="fil0"
             inkscape:connector-curvature="0"
             style="fill:#ae1b0a;fill-opacity:1;fill-rule:nonzero" />
        </g>
        <g
           id="_163744776"
           style="fill:#ae1b0a;fill-opacity:1">
          <path
             id="path4326"
             d="m 17806,11181 c 0,-9 0,-19 0,-28 -14,5 -28,9 -42,14 0,5 0,9 0,14 14,0 28,0 42,0 z"
             class="fil0"
             inkscape:connector-curvature="0"
             style="fill:#ae1b0a;fill-opacity:1;fill-rule:nonzero" />
        </g>
        <g
           id="_163745088"
           style="fill:#ae1b0a;fill-opacity:1">
          <path
             id="path4329"
             d="m 16875,11653 c 39,17 50,17 56,69 -22,8 -33,12 -69,14 -21,-57 -9,-39 14,-83 z"
             class="fil0"
             inkscape:connector-curvature="0"
             style="fill:#ae1b0a;fill-opacity:1;fill-rule:nonzero" />
        </g>
        <g
           id="_163745208"
           style="fill:#ae1b0a;fill-opacity:1">
          <path
             id="path4332"
             d="m 21125,11972 c 19,0 37,0 56,0 23,43 26,25 28,97 -43,23 -25,26 -97,28 -25,-63 -11,-78 14,-125 z"
             class="fil0"
             inkscape:connector-curvature="0"
             style="fill:#ae1b0a;fill-opacity:1;fill-rule:nonzero" />
        </g>
        <g
           id="_163743984"
           style="fill:#ae1b0a;fill-opacity:1">
          <path
             id="path4335"
             d="m 50972,12750 c -56,11 -69,11 -125,0 -6,-36 -13,-61 -14,-111 20,-11 56,-38 69,-56 28,8 12,-2 28,14 45,10 51,19 56,69 5,0 9,0 14,0 -9,28 -19,56 -28,83 z"
             class="fil0"
             inkscape:connector-curvature="0"
             style="fill:#ae1b0a;fill-opacity:1;fill-rule:nonzero" />
        </g>
        <g
           id="_163745376"
           style="fill:#ae1b0a;fill-opacity:1">
          <path
             id="path4338"
             d="m 53903,13847 c 0,-19 0,-37 0,-56 25,-13 22,-19 56,-28 15,29 22,25 28,69 -14,5 -28,9 -42,14 0,5 0,9 0,14 -14,-5 -28,-9 -42,-14 z"
             class="fil0"
             inkscape:connector-curvature="0"
             style="fill:#ae1b0a;fill-opacity:1;fill-rule:nonzero" />
        </g>
        <g
           id="_163745424"
           style="fill:#ae1b0a;fill-opacity:1">
          <path
             id="path4341"
             d="m 50028,14236 c -61,17 -107,57 -153,-14 -29,-26 -1,-7 -14,-42 -22,-59 -17,-90 28,-125 0,-5 0,-9 0,-14 23,0 46,0 69,0 16,16 0,6 28,14 19,32 37,65 56,97 -5,28 -9,56 -14,83 z"
             class="fil0"
             inkscape:connector-curvature="0"
             style="fill:#ae1b0a;fill-opacity:1;fill-rule:nonzero" />
        </g>
        <g
           id="_163745688"
           style="fill:#ae1b0a;fill-opacity:1">
          <path
             id="path4344"
             d="m 44792,41583 c 19,-5 37,-9 56,-14 0,-5 0,-9 0,-14 45,-15 95,8 125,14 8,22 12,33 14,69 5,0 9,0 14,0 -5,32 -9,65 -14,97 -14,5 -28,9 -42,14 0,5 0,9 0,14 -32,0 -65,0 -97,0 -15,-18 -28,-21 -42,-42 -39,-37 -20,-84 -14,-139 z"
             class="fil0"
             inkscape:connector-curvature="0"
             style="fill:#ae1b0a;fill-opacity:1;fill-rule:nonzero" />
        </g>
        <g
           id="_163745640"
           style="fill:#ae1b0a;fill-opacity:1">
          <path
             id="path4347"
             d="m 44819,41972 c 9,0 19,0 28,0 5,-9 9,-19 14,-28 49,-20 134,8 167,14 31,70 80,113 83,208 -61,32 -98,29 -194,28 -16,-16 0,-6 -28,-14 -39,-66 -81,-69 -83,-181 16,-16 6,0 14,-28 z"
             class="fil0"
             inkscape:connector-curvature="0"
             style="fill:#ae1b0a;fill-opacity:1;fill-rule:nonzero" />
        </g>
        <g
           id="_163745712"
           style="fill:#ae1b0a;fill-opacity:1">
          <path
             id="path4350"
             d="m 45278,44847 c 0,-9 0,-19 0,-28 -9,-5 -19,-9 -28,-14 -16,-39 9,-85 14,-111 43,-25 47,-41 125,-42 5,9 9,19 14,28 31,30 29,90 28,153 -37,20 -59,28 -125,28 -16,-16 0,-6 -28,-14 z"
             class="fil0"
             inkscape:connector-curvature="0"
             style="fill:#ae1b0a;fill-opacity:1;fill-rule:nonzero" />
        </g>
        <g
           id="_163745880"
           style="fill:#ae1b0a;fill-opacity:1">
          <path
             id="path4353"
             d="m 17972,52903 c 46,5 93,9 139,14 28,32 56,65 83,97 2,153 20,259 -28,375 -15,8 -22,24 -28,28 -9,0 -19,0 -28,0 0,5 0,9 0,14 -42,0 -83,0 -125,0 -31,-53 -42,-44 -42,-139 -32,-34 -11,-75 -28,-125 -5,0 -9,0 -14,0 -27,-76 -29,-140 -14,-222 14,-7 25,-27 28,-28 19,0 37,0 56,0 0,-5 0,-9 0,-14 z"
             class="fil0"
             inkscape:connector-curvature="0"
             style="fill:#ae1b0a;fill-opacity:1;fill-rule:nonzero" />
        </g>
        <g
           id="_163745904"
           style="fill:#ae1b0a;fill-opacity:1">
          <path
             id="path4356"
             d="m 47361,54514 c -23,5 -46,9 -69,14 0,-19 0,-37 0,-56 5,0 9,0 14,0 0,-5 0,-9 0,-14 9,0 19,0 28,0 13,25 19,22 28,56 z"
             class="fil0"
             inkscape:connector-curvature="0"
             style="fill:#ae1b0a;fill-opacity:1;fill-rule:nonzero" />
        </g>
        <g
           id="_163746192"
           style="fill:#ae1b0a;fill-opacity:1">
          <path
             id="path4359"
             d="m 47181,55069 c 9,0 19,0 28,0 10,-45 19,-51 69,-56 0,-5 0,-9 0,-14 5,0 9,0 14,0 0,5 0,9 0,14 14,0 28,0 42,0 0,5 0,9 0,14 16,16 6,0 14,28 44,47 2,241 -14,278 -55,30 -46,41 -139,42 0,-5 0,-9 0,-14 -9,0 -19,0 -28,0 -9,-14 -19,-28 -28,-42 -5,0 -9,0 -14,0 0,-42 0,-83 0,-125 17,-16 49,-96 56,-125 z"
             class="fil0"
             inkscape:connector-curvature="0"
             style="fill:#ae1b0a;fill-opacity:1;fill-rule:nonzero" />
        </g>
      </g>
    </g>
  </g>
</svg>
